<?xml version="1.0" standalone="no"?>
<!DOCTYPE svg PUBLIC "-//W3C//DTD SVG 1.1//EN" "http://www.w3.org/Graphics/SVG/1.1/DTD/svg11.dtd" >
<svg xmlns="http://www.w3.org/2000/svg">
<metadata></metadata>
<defs>
<font id="kaleko_205_roundlight" horiz-adv-x="315" >
<font-face units-per-em="2048" ascent="1536" descent="-512" />
<missing-glyph horiz-adv-x="552" />
<glyph horiz-adv-x="2048" />
<glyph horiz-adv-x="2048" />
<glyph unicode="&#xd;" horiz-adv-x="2048" />
<glyph unicode=" "  horiz-adv-x="552" />
<glyph unicode="&#x09;" horiz-adv-x="552" />
<glyph unicode="&#xa0;" horiz-adv-x="552" />
<glyph unicode="!" d="M100 39q0 23 16.5 39t41.5 16q23 0 40 -16t17 -39t-17 -39t-40 -16q-25 0 -41.5 16t-16.5 39zM123 1518q0 13 10.5 23.5t24.5 10.5t24.5 -10.5t10.5 -23.5l-11 -1168q0 -10 -7 -17t-17 -7q-11 0 -18 7t-7 17z" />
<glyph unicode="&#x22;" horiz-adv-x="364" d="M102 1198v326q0 12 8.5 20t20.5 8t20.5 -8t8.5 -20v-326q0 -12 -8.5 -20.5t-20.5 -8.5t-20.5 8.5t-8.5 20.5zM205 1198v326q0 12 8 20t20 8t20.5 -8t8.5 -20v-326q0 -12 -8.5 -20.5t-20.5 -8.5t-20 8.5t-8 20.5z" />
<glyph unicode="#" horiz-adv-x="1269" d="M25 594q0 14 10.5 24.5t23.5 10.5h336l60 278h-398q-13 0 -22.5 10.5t-9.5 24.5q0 13 10 24t22 11h412l115 541q3 13 16 23.5t27 10.5q13 0 21 -10t5 -24l-114 -541h280l117 541q3 13 16 23.5t27 10.5t22 -10.5t5 -23.5l-117 -541h321q14 0 24.5 -10.5t10.5 -24.5 t-10.5 -24.5t-24.5 -10.5h-336l-59 -278h395q14 0 24.5 -10.5t10.5 -24.5t-10.5 -24.5t-24.5 -10.5h-409l-115 -541q-3 -13 -16 -23.5t-27 -10.5t-22 10.5t-5 23.5l115 541h-280l-115 -541q-3 -13 -16 -23.5t-27 -10.5t-22 10.5t-5 23.5l115 541h-322q-13 0 -23.5 10.5 t-10.5 24.5zM465 629h280l60 278h-281z" />
<glyph unicode="$" horiz-adv-x="1210" d="M82 145q0 14 10 24.5t23 10.5q11 0 26 -12q90 -63 210.5 -99t252.5 -36q189 0 321 104t132 252q0 120 -86 212t-223 128l-293 78q-149 39 -243.5 141t-94.5 230q0 155 130.5 266.5t321.5 122.5v86q0 13 10.5 24t24.5 11t24.5 -11t10.5 -24v-84q118 -4 230.5 -38.5 t199.5 -90.5q25 -14 25 -33q0 -13 -11 -24t-24 -11q-8 0 -25 10q-176 115 -430 115q-173 0 -294.5 -93t-121.5 -226q0 -104 79 -188t204 -116l291 -75q161 -40 263.5 -153.5t102.5 -256.5q0 -168 -142 -289.5t-347 -132.5v-88q0 -13 -10.5 -24t-24.5 -11t-24.5 11t-10.5 24 v86q-268 9 -467 148q-20 16 -20 32z" />
<glyph unicode="%" horiz-adv-x="1175" d="M82 1290q0 117 82 199t198 82q74 0 136.5 -35t99.5 -94q43 -64 115 -64q42 0 76.5 23t52.5 61l26 68q3 9 12.5 15.5t20.5 6.5q14 0 24.5 -10.5t10.5 -23.5q0 -7 -2 -13l-623 -1499q-11 -22 -32 -22q-14 0 -24.5 10.5t-10.5 23.5q0 7 4 19l534 1284q-46 -12 -69 -12 q-34 0 -74 16q2 -12 2 -35q0 -115 -81.5 -196.5t-197.5 -81.5t-198 81.5t-82 196.5zM154 1290q0 -88 61 -148.5t147 -60.5q88 0 149.5 60.5t61.5 148.5q0 86 -61.5 147.5t-149.5 61.5q-86 0 -147 -61.5t-61 -147.5zM537 244q0 117 81.5 198.5t198.5 81.5q114 0 195.5 -81.5 t81.5 -198.5q0 -115 -81.5 -197t-195.5 -82q-117 0 -198.5 81.5t-81.5 197.5zM606 244q0 -86 61.5 -147.5t149.5 -61.5q86 0 147.5 61.5t61.5 147.5t-61.5 147.5t-147.5 61.5q-88 0 -149.5 -61.5t-61.5 -147.5z" />
<glyph unicode="&#x26;" horiz-adv-x="1341" d="M82 471q0 165 95 295.5t247 183.5q-75 44 -120.5 121t-45.5 168q0 138 97 235t235 97q137 0 233.5 -97t96.5 -235q0 -137 -97 -233.5t-233 -96.5q-181 0 -309.5 -129t-128.5 -309t128.5 -308t309.5 -128q117 0 217.5 58.5t159.5 159t59 218.5v262q0 100 71.5 173 t172.5 73q14 0 24.5 -10.5t10.5 -24.5t-10.5 -24.5t-24.5 -10.5q-72 0 -124 -52t-52 -124v-489q0 -72 51 -122t125 -52q14 0 24.5 -11t10.5 -24t-10.5 -24t-24.5 -11q-96 1 -164.5 63t-79.5 154q-65 -115 -181.5 -183.5t-254.5 -68.5t-255 68t-185 184.5t-68 253.5z M326 1239q0 -109 77.5 -185.5t186.5 -76.5q107 0 183.5 76.5t76.5 185.5q0 108 -76 184t-184 76q-109 0 -186.5 -76t-77.5 -184z" />
<glyph unicode="'" horiz-adv-x="262" d="M102 1198v326q0 12 8.5 20t20.5 8t20.5 -8t8.5 -20v-326q0 -12 -8.5 -20.5t-20.5 -8.5t-20.5 8.5t-8.5 20.5z" />
<glyph unicode="(" horiz-adv-x="542" d="M164 592q0 260 68.5 517.5t193.5 461.5q10 16 27 16q12 0 20 -8t8 -20q0 -7 -8 -23q-116 -191 -173.5 -437t-57.5 -507t57.5 -507t173.5 -437q8 -16 8 -23q0 -12 -8 -20t-20 -8q-17 0 -27 16q-125 204 -193.5 461.5t-68.5 517.5z" />
<glyph unicode=")" horiz-adv-x="542" d="M61 -375q0 5 9 23q116 191 173.5 437t57.5 507t-57.5 507t-173.5 437q-9 18 -9 23q0 12 8.5 20t20.5 8q17 0 27 -16q125 -204 193.5 -461.5t68.5 -517.5t-68.5 -517.5t-193.5 -461.5q-10 -16 -27 -16q-12 0 -20.5 8t-8.5 20z" />
<glyph unicode="*" horiz-adv-x="712" d="M145.5 1233.5q3.5 15.5 16.5 21.5l139 72l-139 72q-13 6 -16.5 21.5t4.5 25.5q6 13 20.5 17.5t26.5 -3.5l133 -86l-8 158q-1 14 9.5 24.5t24.5 10.5t25 -10.5t10 -24.5l-6 -158l131 86q12 8 26.5 3.5t20.5 -17.5q8 -10 4.5 -25.5t-16.5 -21.5l-139 -72l139 -72 q13 -6 16.5 -21.5t-4.5 -27.5q-6 -11 -20.5 -15.5t-26.5 3.5l-131 84l6 -156q1 -14 -10 -24.5t-25 -10.5t-24.5 10.5t-9.5 24.5l8 156l-133 -84q-12 -8 -26.5 -3.5t-20.5 15.5q-8 12 -4.5 27.5z" />
<glyph unicode="+" horiz-adv-x="1392" d="M86 594q0 14 11 24.5t24 10.5h541v538q0 14 10.5 24.5t23.5 10.5q14 0 24.5 -11t10.5 -24v-538h541q14 0 24.5 -10.5t10.5 -24.5t-10.5 -24.5t-24.5 -10.5h-541v-541q0 -13 -10.5 -23.5t-24.5 -10.5t-24 10t-10 24v541h-541q-13 0 -24 10.5t-11 24.5z" />
<glyph unicode="," horiz-adv-x="370" d="M72 49q0 25 18.5 43.5t44.5 18.5t44 -18.5t18 -43.5v-168q0 -39 -27.5 -66.5t-67.5 -27.5q-10 0 -18 8t-8 19q0 10 8 18t18 8q17 0 30 13t13 30v101h-10q-26 0 -44.5 18.5t-18.5 46.5z" />
<glyph unicode="-" horiz-adv-x="950" d="M127 594q0 14 10.5 24.5t24.5 10.5h626q14 0 24.5 -10.5t10.5 -24.5t-10.5 -24.5t-24.5 -10.5h-626q-14 0 -24.5 10.5t-10.5 24.5z" />
<glyph unicode="." horiz-adv-x="370" d="M72 49q0 25 18.5 43.5t44.5 18.5t44 -18.5t18 -43.5q0 -28 -18 -46.5t-44 -18.5t-44.5 18.5t-18.5 46.5z" />
<glyph unicode="/" horiz-adv-x="905" d="M106 18q0 4 5 19l620 1493q3 9 13 15.5t20 6.5q14 0 24.5 -10.5t10.5 -23.5q0 -7 -2 -13l-623 -1499q-11 -22 -33 -22q-14 0 -24.5 10.5t-10.5 23.5z" />
<glyph unicode="0" horiz-adv-x="1251" d="M82 768q0 135 19 253.5t61.5 220t105 174t153.5 114t204 41.5q141 0 247.5 -62.5t170 -174t95 -253.5t31.5 -313t-31.5 -313t-95 -253.5t-170 -174t-247.5 -62.5q-113 0 -204 41.5t-153.5 114t-105 174t-61.5 220t-19 253.5zM154 768q0 -733 471 -733q473 0 473 733 q0 731 -473 731q-471 0 -471 -731z" />
<glyph unicode="1" horiz-adv-x="552" d="M82 1366q0 22 18 31l256 149q9 6 25 6q20 0 34.5 -14.5t14.5 -34.5v-1485q0 -13 -10.5 -23.5t-24.5 -10.5t-24.5 10.5t-10.5 23.5v1448l-229 -131q-8 -4 -14 -4q-13 0 -24 10.5t-11 24.5z" />
<glyph unicode="2" horiz-adv-x="1212" d="M82 1020v27q0 143 70 263.5t191 190.5t263 70t263 -70t191 -190.5t70 -263.5q0 -118 -50 -223.5t-136 -178.5l-688 -575h791q13 0 23.5 -10.5t10.5 -24.5t-10.5 -24.5t-23.5 -10.5h-848q-20 0 -34.5 14.5t-14.5 34.5q0 22 22 41l725 610q76 64 119 154.5t43 192.5 q0 189 -132 322.5t-321 133.5t-321.5 -133.5t-132.5 -322.5v-27q0 -14 -11 -24.5t-24 -10.5t-24 10.5t-11 24.5z" />
<glyph unicode="3" horiz-adv-x="1206" d="M78 401q0 15 10 26t25 11t26 -11t11 -26q1 -101 61.5 -185t164 -132.5t226.5 -48.5q188 0 320.5 107t132.5 259q0 151 -133 259t-320 108h-88q-14 0 -24.5 11t-10.5 24t10.5 24t24.5 11h88q166 0 284 96.5t118 234.5q0 136 -118 233t-284 97t-283.5 -97t-117.5 -233 q0 -15 -11 -24.5t-26 -9.5t-25 9.5t-10 24.5q1 110 65 202.5t172.5 146t235.5 53.5t235.5 -54t172 -146.5t63.5 -201.5q0 -120 -75 -218t-199 -146q146 -48 235.5 -158t89.5 -246q0 -119 -69.5 -219.5t-190 -158.5t-262.5 -58q-143 0 -263.5 58t-190.5 158.5t-70 219.5z" />
<glyph unicode="4" horiz-adv-x="1214" d="M37 434q0 20 12 35l760 1061q15 22 41 22q20 0 34.5 -14.5t14.5 -34.5v-1048h219q14 0 24.5 -10.5t10.5 -24.5t-10.5 -24.5t-24.5 -10.5h-219v-367q0 -13 -10.5 -23.5t-24.5 -10.5t-24.5 10.5t-10.5 23.5v367h-743q-20 0 -34.5 14.5t-14.5 34.5zM127 455h702v987z" />
<glyph unicode="5" horiz-adv-x="1202" d="M78 451v8q0 13 11 24t24 11t23.5 -10.5t10.5 -24.5q12 -179 141 -301.5t310 -122.5q189 0 321 132.5t132 321.5q0 92 -35.5 176t-96 144.5t-144.5 96.5t-177 36q-108 0 -201.5 -47.5t-156.5 -128.5q-10 -16 -31 -16q-15 0 -26 10.5t-11 25.5l123 707q3 18 17 30.5 t32 12.5h586q14 0 24.5 -11t10.5 -24t-10.5 -24t-24.5 -11h-568l-102 -579q141 123 338 123q216 0 369 -153t153 -368q0 -143 -69.5 -263.5t-190 -190.5t-262.5 -70q-208 0 -356.5 140.5t-163.5 345.5z" />
<glyph unicode="6" horiz-adv-x="1210" d="M82 696q0 183 37.5 341t109 277.5t182 188t248.5 68.5q243 0 379 -133q9 -9 9 -24.5t-9 -24.5t-24.5 -9t-24.5 9q-123 110 -330 110q-125 0 -222.5 -62t-158.5 -172.5t-92.5 -255.5t-31.5 -317q60 142 190.5 231t290.5 89q143 0 264 -70t191.5 -191t70.5 -264 q0 -142 -70.5 -262.5t-191.5 -190t-264 -69.5q-117 0 -212 42.5t-157.5 113t-104.5 166t-60.5 197.5t-18.5 212zM182 487q0 -186 133.5 -319t319.5 -133q124 0 229 61t165.5 165t60.5 226q0 189 -133 322t-322 133q-91 0 -175 -36t-145 -96.5t-97 -145t-36 -177.5z" />
<glyph unicode="7" horiz-adv-x="1101" d="M45 1501q0 13 10.5 24t24.5 11h928q20 0 34.5 -14.5t14.5 -34.5q0 -11 -6 -23l-609 -1454q-13 -26 -32 -26q-14 0 -24.5 10.5t-10.5 23.5q0 5 4 17l594 1431h-893q-14 0 -24.5 11t-10.5 24z" />
<glyph unicode="8" horiz-adv-x="1210" d="M82 401q0 150 88 252t238 152q-127 50 -201 141t-74 223q0 180 136.5 291t336.5 111q129 0 236 -48.5t171 -141t64 -212.5q0 -133 -72.5 -223.5t-201.5 -140.5q151 -49 238 -151t87 -253q0 -129 -70.5 -229.5t-188.5 -153.5t-263 -53t-264 53t-189.5 153.5t-70.5 229.5z M154 401q0 -166 129 -265t323 -99q195 0 324 99t129 265q0 167 -129 267t-324 100q-127 0 -229 -43.5t-162.5 -127.5t-60.5 -196zM205 1169q0 -151 115 -240t286 -89q112 0 202.5 38.5t145 114t54.5 176.5q0 152 -115 242t-287 90q-171 0 -286 -90t-115 -242z" />
<glyph unicode="9" horiz-adv-x="1230" d="M82 1047q0 106 41.5 202.5t111 167t167 112.5t204.5 42q113 0 204.5 -36.5t154 -100.5t104.5 -153.5t61 -192t19 -218.5q0 -190 -36 -352.5t-105.5 -287t-180.5 -195t-252 -70.5q-265 0 -411 158q-9 9 -9 24.5t9 24.5t24.5 9t24.5 -9q127 -137 362 -137q124 0 219.5 60 t155 167.5t91 246.5t36.5 308q-64 -133 -191 -214t-280 -81q-107 0 -204 41.5t-167 112t-111.5 167.5t-41.5 204zM154 1047q0 -124 60.5 -228.5t164.5 -164.5t227 -60q189 0 321 132t132 321q0 123 -60 227t-164.5 164.5t-228.5 60.5q-188 0 -320 -132.5t-132 -319.5z" />
<glyph unicode=":" horiz-adv-x="370" d="M72 49q0 25 18.5 43.5t44.5 18.5t44 -18.5t18 -43.5q0 -28 -18 -46.5t-44 -18.5t-44.5 18.5t-18.5 46.5zM72 1141q0 25 18.5 43t44.5 18t44 -18t18 -43q0 -28 -18 -47t-44 -19t-44.5 19t-18.5 47z" />
<glyph unicode=";" horiz-adv-x="370" d="M72 49q0 25 18.5 43.5t44.5 18.5t44 -18.5t18 -43.5v-168q0 -39 -27.5 -66.5t-67.5 -27.5q-10 0 -18 8t-8 19q0 10 8 18t18 8q17 0 30 13t13 30v101h-10q-26 0 -44.5 18.5t-18.5 46.5zM72 1141q0 25 18.5 43t44.5 18t44 -18t18 -43q0 -28 -18 -47t-44 -19t-44.5 19 t-18.5 47z" />
<glyph unicode="&#x3c;" horiz-adv-x="884" d="M49 594q0 25 21 39l671 457q15 12 27 12q14 0 24.5 -11t10.5 -24q0 -18 -19 -31l-651 -442l651 -442q19 -13 19 -31q0 -13 -10.5 -24t-24.5 -11q-12 0 -27 12l-671 457q-21 14 -21 39z" />
<glyph unicode="=" horiz-adv-x="1390" d="M86 420q0 14 11 24.5t24 10.5h1149q14 0 24.5 -10.5t10.5 -24.5t-10.5 -24.5t-24.5 -10.5h-1149q-13 0 -24 10.5t-11 24.5zM86 768q0 14 11 24.5t24 10.5h1149q14 0 24.5 -10.5t10.5 -24.5t-10.5 -24.5t-24.5 -10.5h-1149q-13 0 -24 10.5t-11 24.5z" />
<glyph unicode="&#x3e;" horiz-adv-x="884" d="M82 121q0 19 18 31l652 442l-652 442q-18 12 -18 31q0 13 11 24t24 11q11 0 26 -12l672 -457q21 -14 21 -39t-21 -39l-672 -457q-15 -12 -26 -12q-13 0 -24 11t-11 24z" />
<glyph unicode="?" horiz-adv-x="1210" d="M82 1057q9 207 160.5 351t361.5 144q143 0 263.5 -69.5t190.5 -189.5t70 -261q0 -210 -141.5 -360t-347.5 -164v-164q0 -14 -10.5 -24.5t-24.5 -10.5t-24.5 10.5t-10.5 24.5v182q0 20 14.5 34.5t34.5 14.5q184 6 312.5 139t128.5 318q0 186 -133.5 319.5t-321.5 133.5 q-181 0 -312 -124.5t-140 -303.5q0 -13 -11 -24t-24 -11t-24 11t-11 24zM549 37q0 25 16 41t39 16t39 -16t16 -41q0 -22 -16 -37.5t-39 -15.5t-39 15.5t-16 37.5z" />
<glyph unicode="@" horiz-adv-x="1789" d="M82 768q0 218 107.5 402.5t292.5 292.5t403 108q217 0 402 -108t293 -293t108 -402v-244q0 -86 -61.5 -147.5t-149.5 -61.5q-86 0 -147.5 61.5t-61.5 149.5q-61 -97 -162.5 -154t-220.5 -57q-189 0 -321 132t-132 321t132 321t321 132q123 0 227 -60t164.5 -164.5 t60.5 -228.5v-244q0 -58 41.5 -98.5t98.5 -40.5q59 0 100 40.5t41 98.5v244q0 148 -58.5 283.5t-156.5 233.5t-234 156t-284 58t-284 -58t-234 -156t-156.5 -233.5t-58.5 -283.5q0 -199 98.5 -368t267.5 -267t367 -98q136 0 313 69q10 5 16 5q14 0 24.5 -10.5t10.5 -24.5 q0 -12 -7.5 -22t-16.5 -13q-172 -74 -340 -74q-218 0 -403 108t-292.5 292.5t-107.5 402.5zM500 768q0 -158 112.5 -270.5t272.5 -112.5q158 0 270.5 112.5t112.5 270.5t-112.5 271.5t-270.5 113.5q-159 0 -272 -113t-113 -272z" />
<glyph unicode="A" horiz-adv-x="1396" d="M41 35l614 1485q11 32 43 32t43 -32l615 -1485q4 -9 4 -17q0 -10 -6 -18q-11 -16 -31 -16q-22 0 -33 22l-155 379h-873l-156 -379q-11 -22 -32 -22q-20 0 -31 16q-6 9 -6 18q0 8 4 17zM289 453h819l-410 983z" />
<glyph unicode="B" horiz-adv-x="1357" d="M123 49v1438q0 20 14.5 34.5t34.5 14.5h649q160 0 272.5 -112.5t112.5 -270.5q0 -110 -56 -201t-149 -139q122 -45 198.5 -153.5t76.5 -241.5q0 -173 -123.5 -295.5t-296.5 -122.5h-684q-20 0 -34.5 14.5t-14.5 34.5zM193 70h663q144 0 246 102.5t102 245.5 q0 145 -101.5 247.5t-246.5 102.5h-663v-698zM193 838h628q131 0 222.5 91.5t91.5 223.5q0 129 -92 221t-222 92h-628v-628z" />
<glyph unicode="C" horiz-adv-x="1511" d="M70 768q0 217 107.5 402t292.5 293t402 108q159 0 306 -62t258 -170q10 -10 10 -24q0 -13 -11 -24t-24 -11q-15 0 -25 10q-102 99 -234.5 154t-279.5 55q-148 0 -283.5 -58t-233.5 -156t-156 -233.5t-58 -283.5t58 -283.5t156 -233.5t233.5 -156t283.5 -58 q147 0 279.5 55t234.5 154q10 10 25 10q13 0 24 -11t11 -24q0 -14 -10 -24q-111 -108 -258 -170t-306 -62q-217 0 -402 108t-292.5 293t-107.5 402z" />
<glyph unicode="D" horiz-adv-x="1486" d="M123 49v1438q0 20 14.5 34.5t34.5 14.5h475q209 0 385.5 -103t279.5 -279.5t103 -385.5t-103 -385.5t-279.5 -279.5t-385.5 -103h-475q-20 0 -34.5 14.5t-14.5 34.5zM193 70h454q142 0 271 55t222 148.5t148 222.5t55 272q0 142 -55 271t-148 222.5t-222 149t-271 55.5 h-454v-1396z" />
<glyph unicode="E" horiz-adv-x="1312" d="M123 49v1438q0 20 14.5 34.5t34.5 14.5h1034q14 0 24.5 -11t10.5 -24t-10.5 -24t-24.5 -11h-1013v-663h872q13 0 24 -10.5t11 -24.5t-11 -24.5t-24 -10.5h-872v-663h1013q14 0 24.5 -11t10.5 -24t-10.5 -24t-24.5 -11h-1034q-20 0 -34.5 14.5t-14.5 34.5z" />
<glyph unicode="F" horiz-adv-x="1234" d="M123 18v1469q0 20 14.5 34.5t34.5 14.5h997q13 0 24 -11t11 -24t-11 -24t-24 -11h-976v-663h835q14 0 24.5 -10.5t10.5 -24.5t-10.5 -24.5t-24.5 -10.5h-835v-715q0 -13 -10.5 -23.5t-24.5 -10.5t-24.5 10.5t-10.5 23.5z" />
<glyph unicode="G" horiz-adv-x="1587" d="M72 768q0 217 107.5 402t292.5 293t402 108q157 0 301 -59t255 -164q10 -10 10 -25q0 -13 -11 -24t-24 -11q-15 0 -25 10q-102 95 -232 148t-274 53q-148 0 -283.5 -58t-233.5 -156t-156 -233.5t-58 -283.5q0 -200 98 -368.5t266.5 -266.5t366.5 -98q159 0 299.5 62.5 t243.5 174.5v461h-524q-13 0 -24 10.5t-11 24.5t11 24.5t24 10.5h543q20 0 34.5 -14.5t14.5 -34.5v-490q0 -21 -12 -33q-112 -125 -268 -195.5t-331 -70.5q-217 0 -402 108t-292.5 293t-107.5 402z" />
<glyph unicode="H" horiz-adv-x="1431" d="M123 18v1500q0 13 10.5 23.5t24.5 10.5t24.5 -10.5t10.5 -23.5v-715h1046v715q0 13 10.5 23.5t24.5 10.5t24.5 -10.5t10.5 -23.5v-1500q0 -13 -10.5 -23.5t-24.5 -10.5t-24.5 10.5t-10.5 23.5v715h-1046v-715q0 -13 -10.5 -23.5t-24.5 -10.5t-24.5 10.5t-10.5 23.5z" />
<glyph unicode="I" d="M123 18v1500q0 13 10.5 23.5t24.5 10.5t24.5 -10.5t10.5 -23.5v-1500q0 -13 -10.5 -23.5t-24.5 -10.5t-24.5 10.5t-10.5 23.5z" />
<glyph unicode="J" horiz-adv-x="880" d="M41 102q0 14 10.5 24.5t24.5 10.5t22 -8q97 -94 240 -94q149 0 249.5 84t100.5 225v1174q0 13 10.5 23.5t24.5 10.5t24.5 -10.5t10.5 -23.5v-1174q0 -169 -121.5 -274t-298.5 -105q-168 0 -285 111q-12 12 -12 26z" />
<glyph unicode="K" horiz-adv-x="1220" d="M123 18v1500q0 13 10.5 23.5t24.5 10.5t24.5 -10.5t10.5 -23.5v-1500q0 -13 -10.5 -23.5t-24.5 -10.5t-24.5 10.5t-10.5 23.5zM289 768q0 21 16 37l821 739q8 8 23 8q14 0 24.5 -10.5t10.5 -23.5q0 -15 -10 -25l-805 -725l805 -725q10 -10 10 -25q0 -13 -10.5 -23.5 t-24.5 -10.5q-15 0 -23 8l-821 739q-16 16 -16 37z" />
<glyph unicode="L" horiz-adv-x="1200" d="M123 49v1469q0 13 10.5 23.5t24.5 10.5t24.5 -10.5t10.5 -23.5v-1448h942q13 0 23.5 -10.5t10.5 -24.5t-10.5 -24.5t-23.5 -10.5h-963q-20 0 -34.5 14.5t-14.5 34.5z" />
<glyph unicode="M" horiz-adv-x="1781" d="M123 18v1495q0 15 12 27t27 12q19 0 37 -22l692 -811l692 811q18 22 37 22q15 0 27 -12t12 -27v-1495q0 -13 -10.5 -23.5t-24.5 -10.5t-24.5 10.5t-10.5 23.5v1409l-661 -772q-13 -16 -37 -16t-37 16l-661 772v-1409q0 -13 -10.5 -23.5t-24.5 -10.5t-24.5 10.5 t-10.5 23.5z" />
<glyph unicode="N" horiz-adv-x="1431" d="M123 18v1498q0 15 12 25.5t27 10.5q21 0 31 -16l1046 -1417v1399q0 13 10.5 23.5t24.5 10.5t24.5 -10.5t10.5 -23.5v-1498q0 -15 -12 -25.5t-27 -10.5q-21 0 -31 16l-1046 1417v-1399q0 -13 -10.5 -23.5t-24.5 -10.5t-24.5 10.5t-10.5 23.5z" />
<glyph unicode="O" horiz-adv-x="1748" d="M72 768q0 163 63.5 311.5t170.5 256t256 171.5t312 64q217 0 402 -108t293 -293t108 -402t-108 -402t-293 -293t-402 -108q-163 0 -312 64t-256 171.5t-170.5 256t-63.5 311.5zM143 768q0 -200 98 -368.5t266.5 -266.5t366.5 -98t366.5 98t267 266.5t98.5 368.5 q0 148 -58 283.5t-156.5 233.5t-234 156t-283.5 58t-283.5 -58t-233.5 -156t-156 -233.5t-58 -283.5z" />
<glyph unicode="P" horiz-adv-x="1347" d="M123 18v1469q0 20 14.5 34.5t34.5 14.5h633q127 0 235.5 -63t172 -172t63.5 -238q0 -127 -63.5 -235t-172 -171t-235.5 -63h-612v-576q0 -13 -10.5 -23.5t-24.5 -10.5t-24.5 10.5t-10.5 23.5zM193 664h612q166 0 282.5 116.5t116.5 282.5t-117 284.5t-282 118.5h-612 v-802z" />
<glyph unicode="Q" horiz-adv-x="1748" d="M72 768q0 163 63.5 311.5t170.5 256t256 171.5t312 64q217 0 402 -108t293 -293t108 -402q0 -155 -56 -294.5t-157 -246.5l185 -184q10 -10 10 -25q0 -13 -10.5 -23.5t-24.5 -10.5q-15 0 -25 10l-184 184q-109 -102 -248 -157.5t-293 -55.5q-163 0 -312 64t-256 171.5 t-170.5 256t-63.5 311.5zM143 768q0 -232 129 -418t338 -266q-88 94 -88 233q0 146 103 249.5t249 103.5q144 0 248 -101l293 -293q91 98 141 225t50 267q0 148 -58 283.5t-156.5 233.5t-234 156t-283.5 58t-283.5 -58t-233.5 -156t-156 -233.5t-58 -283.5zM590 317 q0 -117 83.5 -199.5t200.5 -82.5q138 0 265 50.5t227 141.5l-293 289q-78 84 -199 84q-117 0 -200.5 -82.5t-83.5 -200.5z" />
<glyph unicode="R" horiz-adv-x="1357" d="M123 18v1469q0 20 14.5 34.5t34.5 14.5h633q127 0 235.5 -63t172 -172t63.5 -238q0 -173 -114 -305t-283 -160l284 -567q7 -15 -4.5 -31t-28.5 -16q-23 0 -34 22l-291 588h-612v-576q0 -13 -10.5 -23.5t-24.5 -10.5t-24.5 10.5t-10.5 23.5zM193 664h612 q166 0 282.5 116.5t116.5 282.5t-117 284.5t-282 118.5h-612v-802z" />
<glyph unicode="S" horiz-adv-x="1210" d="M82 145q0 14 10 24.5t23 10.5q11 0 26 -12q90 -63 210.5 -99t252.5 -36q189 0 321 104t132 252q0 120 -86 212t-223 128l-293 78q-149 39 -243.5 141t-94.5 230q0 107 65 197t177 142t245 52q128 0 250 -34.5t215 -94.5q25 -14 25 -33q0 -13 -11 -24t-24 -11q-8 0 -25 10 q-176 115 -430 115q-173 0 -294.5 -93t-121.5 -226q0 -104 79 -188t204 -116l291 -75q161 -40 263.5 -153.5t102.5 -256.5q0 -115 -70 -212.5t-191 -154.5t-263 -57q-141 0 -271 39.5t-231 108.5q-20 16 -20 32z" />
<glyph unicode="T" horiz-adv-x="1226" d="M20 1501q0 13 11 24t24 11h1116q13 0 24 -11t11 -24t-11 -24t-24 -11h-522v-1448q0 -13 -10.5 -23.5t-24.5 -10.5t-24 10t-10 24v1448h-525q-13 0 -24 11t-11 24z" />
<glyph unicode="U" horiz-adv-x="1431" d="M123 559v959q0 13 10.5 23.5t24.5 10.5t24.5 -10.5t10.5 -23.5v-959q0 -143 70 -263.5t191 -190.5t263 -70t262.5 70t190 190.5t69.5 263.5v959q0 13 10.5 23.5t24.5 10.5t24.5 -10.5t10.5 -23.5v-959q0 -161 -79.5 -298t-216 -216.5t-296.5 -79.5q-161 0 -298 79.5 t-216.5 216.5t-79.5 298z" />
<glyph unicode="V" horiz-adv-x="1368" d="M31 1516q0 15 10 25.5t25 10.5q23 0 34 -28l584 -1426l584 1426q10 28 35 28q15 0 24.5 -10.5t9.5 -25.5q0 -7 -4 -19l-612 -1491q-11 -22 -37 -22t-37 22l-612 1491q-4 12 -4 19z" />
<glyph unicode="W" horiz-adv-x="1859" d="M33 1501q-2 8 -2 15q1 12 7 22q10 14 30 14q26 0 34 -30l394 -1389l393 1389q3 12 15.5 21t25.5 9t25.5 -9t15.5 -21l393 -1389l393 1389q3 13 12.5 21.5t22.5 8.5q20 0 30 -14q7 -9 7 -22q0 -7 -2 -15l-422 -1483q-2 -14 -14 -24t-27 -10t-26.5 10t-14.5 24l-393 1385 l-393 -1385q-3 -14 -14.5 -24t-26.5 -10t-27 10t-14 24z" />
<glyph unicode="X" horiz-adv-x="1257" d="M41 18q0 12 6 21l541 729l-541 729q-6 9 -6 21q0 13 10.5 23.5t24.5 10.5q19 0 30 -18l523 -707l522 707q11 18 31 18q14 0 24.5 -10.5t10.5 -23.5q0 -10 -7 -21l-540 -729l540 -729q7 -11 7 -21q0 -13 -10.5 -23.5t-24.5 -10.5q-20 0 -31 18l-522 707l-523 -707 q-11 -18 -30 -18q-14 0 -24.5 10.5t-10.5 23.5z" />
<glyph unicode="Y" horiz-adv-x="1273" d="M31 1518q0 13 10.5 23.5t24.5 10.5q19 0 30 -18l541 -731l541 731q11 18 30 18q14 0 24.5 -10.5t10.5 -23.5q0 -12 -6 -21l-565 -762v-717q0 -13 -10.5 -23.5t-24.5 -10.5t-24.5 10.5t-10.5 23.5v717l-565 762q-6 9 -6 21z" />
<glyph unicode="Z" horiz-adv-x="1302" d="M41 37q0 10 8 22l1108 1407h-1081q-14 0 -24.5 11t-10.5 24t10.5 24t24.5 11h1149q15 0 26 -11t11 -26q0 -9 -9 -22l-1108 -1407h1082q13 0 24 -11t11 -24t-11 -24t-24 -11h-1149q-15 0 -26 11t-11 26z" />
<glyph unicode="[" horiz-adv-x="505" d="M164 -301v1788q0 20 14.5 34.5t34.5 14.5h213q14 0 24.5 -11t10.5 -24t-10.5 -24t-24.5 -11h-193v-1747h193q14 0 24.5 -10.5t10.5 -23.5t-10.5 -24t-24.5 -11h-213q-20 0 -34.5 14.5t-14.5 34.5z" />
<glyph unicode="\" horiz-adv-x="905" d="M106 1518q0 13 10.5 23.5t24.5 10.5q11 0 20.5 -6.5t12.5 -15.5l621 -1493q4 -12 4 -19q0 -13 -10.5 -23.5t-24.5 -10.5q-22 0 -33 22l-622 1499q-3 9 -3 13z" />
<glyph unicode="]" horiz-adv-x="505" d="M45 -315q0 13 10.5 23.5t24.5 10.5h192v1747h-192q-14 0 -24.5 11t-10.5 24t10.5 24t24.5 11h213q20 0 34.5 -14.5t14.5 -34.5v-1788q0 -20 -14.5 -34.5t-34.5 -14.5h-213q-14 0 -24.5 11t-10.5 24z" />
<glyph unicode="^" horiz-adv-x="1159" d="M106 791q0 9 5 16l421 711q20 34 48 34q27 0 47 -34l422 -711q4 -6 4 -16q0 -13 -10.5 -24t-24.5 -11q-22 0 -33 22l-405 684l-406 -684q-11 -22 -33 -22q-13 0 -24 11t-11 24z" />
<glyph unicode="_" horiz-adv-x="1062" d="M0 -186h1186v-52h-1186v52z" />
<glyph unicode="`" horiz-adv-x="716" d="M174 1530q0 17 12 29t29 12q10 0 25 -6l282 -113q21 -9 21 -25q0 -10 -7 -17t-18 -7q-4 0 -12 2l-301 86q-31 9 -31 39z" />
<glyph unicode="a" horiz-adv-x="1241" d="M72 385q0 88 33 163t97 132.5t168.5 90t239.5 32.5q139 0 255.5 -48.5t183.5 -131.5v237q0 120 -122.5 204.5t-295.5 84.5q-135 0 -250 -38.5t-182 -102.5q-9 -9 -24.5 -9t-24.5 9t-9 24.5t9 24.5q75 75 202 119.5t279 44.5q132 0 244 -49t177.5 -132t65.5 -180v-842 q0 -13 -10.5 -23.5t-24.5 -10.5q-13 0 -23.5 10t-10.5 24v183q-67 -108 -183.5 -172t-255.5 -64q-134 0 -239 33t-169 91t-97 133t-33 163zM143 385q0 -154 118 -251t349 -97q181 0 310 115t129 276q0 127 -128.5 216t-310.5 89q-231 0 -349 -96.5t-118 -251.5z" />
<glyph unicode="b" horiz-adv-x="1462" d="M123 18v1500q0 13 10.5 23.5t24.5 10.5t24.5 -10.5t10.5 -23.5l2 -637q77 154 227.5 247t329.5 93q127 0 243.5 -49.5t200.5 -133.5t134 -200.5t50 -243.5q0 -128 -50 -244.5t-134 -201t-200 -134t-244 -49.5q-179 0 -329.5 93t-227.5 247l-2 -287q0 -13 -10.5 -23.5 t-24.5 -10.5t-24.5 10.5t-10.5 23.5zM193 594q1 -152 75.5 -280.5t203 -203.5t280.5 -75t280.5 75t202.5 203.5t74 280.5q0 113 -44 216.5t-118.5 178.5t-177.5 119.5t-217 44.5t-217.5 -44.5t-178.5 -119.5t-119 -178.5t-44 -216.5z" />
<glyph unicode="c" horiz-adv-x="1224" d="M82 594q0 170 84.5 314.5t230 228.5t316.5 84q122 0 233 -44.5t199 -125.5q10 -10 10 -27q0 -14 -10.5 -24.5t-24.5 -10.5t-22 8q-166 156 -385 156q-113 0 -216.5 -44.5t-178.5 -119.5t-119.5 -178.5t-44.5 -216.5t44.5 -216.5t119.5 -178.5t178.5 -119.5t216.5 -44.5 q220 0 385 155q9 9 22 9q14 0 24.5 -10.5t10.5 -24.5q0 -17 -10 -27q-88 -81 -199 -125.5t-233 -44.5q-171 0 -316.5 84t-230 228.5t-84.5 314.5z" />
<glyph unicode="d" horiz-adv-x="1462" d="M82 594q0 170 84.5 314.5t229.5 228.5t315 84q179 0 329.5 -93t227.5 -247l2 637q0 13 10.5 23.5t24.5 10.5q13 0 23.5 -10t10.5 -24v-1500q0 -14 -10.5 -24t-23.5 -10q-14 0 -24.5 10.5t-10.5 23.5l-2 287q-77 -154 -227.5 -247t-329.5 -93q-170 0 -315 84t-229.5 229 t-84.5 316zM154 594q0 -152 74 -280.5t202.5 -203.5t280.5 -75t280.5 75t203 203.5t75.5 280.5q0 113 -44 216.5t-119 178.5t-178.5 119.5t-217.5 44.5t-217 -44.5t-177.5 -119.5t-118.5 -178.5t-44 -216.5z" />
<glyph unicode="e" horiz-adv-x="1417" d="M82 594q0 170 84 314.5t228.5 228.5t314.5 84q166 0 308 -81t227 -220.5t91 -305.5q0 -24 -14 -39.5t-35 -15.5h-1134q10 -145 86 -265t200.5 -189.5t270.5 -69.5q145 0 269.5 70.5t199.5 189.5q10 24 34 24q14 0 24.5 -10.5t10.5 -23.5q0 -12 -10 -25 q-86 -136 -225.5 -215.5t-302.5 -79.5q-170 0 -314.5 84.5t-228.5 229.5t-84 315zM152 629h1112q-14 220 -174 371t-381 151q-146 0 -270.5 -69t-200.5 -188.5t-86 -264.5z" />
<glyph unicode="f" horiz-adv-x="659" d="M25 1151q0 14 10.5 24.5t23.5 10.5h121v125q0 107 76.5 183.5t183.5 76.5q106 0 183 -74q12 -9 12 -27q0 -13 -10.5 -23.5t-24.5 -10.5q-17 0 -27 10q-57 57 -133 57q-78 0 -134 -56.5t-56 -135.5v-125h297q13 0 24 -11t11 -24t-11 -24t-24 -11h-297v-1098 q0 -13 -10.5 -23.5t-24.5 -10.5t-24.5 10.5t-10.5 23.5v1098h-121q-13 0 -23.5 10.5t-10.5 24.5z" />
<glyph unicode="g" horiz-adv-x="1212" d="M94 -45q0 94 58 168q-58 55 -58 121q0 87 87.5 145t236.5 82q-92 53 -147.5 146t-55.5 202q0 166 118.5 284t284.5 118q176 0 300 -134q19 60 68 97t112 37h10q14 0 24.5 -10.5t10.5 -24.5t-10.5 -24.5t-24.5 -10.5h-10q-51 0 -87 -35.5t-36 -87.5q0 -14 10 -49 q35 -75 35 -160q0 -166 -118 -283.5t-284 -117.5q-97 0 -177 -10t-143 -30t-97.5 -54t-34.5 -80q0 -42 29 -74q70 61 180.5 93t242.5 32q147 0 264.5 -38t189 -116.5t71.5 -185.5t-71.5 -185.5t-189 -116.5t-264.5 -38q-148 0 -265 38t-188 116.5t-71 185.5zM166 -45 q0 -70 34.5 -123t97 -84.5t143 -47t177.5 -15.5q131 0 230 26.5t161 88.5t62 155t-62 155t-161 88.5t-230 26.5q-97 0 -177.5 -15.5t-143 -47t-97 -84.5t-34.5 -123zM287 819q0 -137 96.5 -234.5t234.5 -97.5q136 0 233 97.5t97 234.5t-97 234.5t-233 97.5 q-138 0 -234.5 -97.5t-96.5 -234.5z" />
<glyph unicode="h" horiz-adv-x="1257" d="M123 18v1500q0 13 10.5 23.5t24.5 10.5t24.5 -10.5t10.5 -23.5v-557q68 120 188.5 190t265.5 70q201 0 344.5 -143t143.5 -345v-715q0 -13 -10.5 -23.5t-24.5 -10.5t-24.5 10.5t-10.5 23.5v715q0 173 -122.5 296.5t-295.5 123.5q-189 0 -321.5 -133t-132.5 -322v-680 q0 -13 -10.5 -23.5t-24.5 -10.5t-24.5 10.5t-10.5 23.5z" />
<glyph unicode="i" d="M109 1522q0 20 14.5 34.5t34.5 14.5t34.5 -14.5t14.5 -34.5t-14.5 -34.5t-34.5 -14.5t-34.5 14.5t-14.5 34.5zM123 18v1149q0 13 10.5 24t24.5 11t24.5 -11t10.5 -24v-1149q0 -13 -10.5 -23.5t-24.5 -10.5t-24.5 10.5t-10.5 23.5z" />
<glyph unicode="j" horiz-adv-x="491" d="M-82 -289q0 13 11 24t24 11q14 0 24 -10q53 -53 132 -53q78 0 134 57t56 135v1292q0 13 10.5 24t24.5 11t24.5 -11t10.5 -24v-1292q0 -109 -75.5 -184.5t-184.5 -75.5t-181 72q-10 10 -10 24zM285 1520q0 20 14.5 34.5t34.5 14.5t34.5 -14.5t14.5 -34.5t-14.5 -35 t-34.5 -15t-34.5 15t-14.5 35z" />
<glyph unicode="k" horiz-adv-x="1085" d="M123 18v1500q0 13 10.5 23.5t24.5 10.5t24.5 -10.5t10.5 -23.5v-1500q0 -13 -10.5 -23.5t-24.5 -10.5t-24.5 10.5t-10.5 23.5zM289 594q0 26 18 41l684 561q12 8 23 8q14 0 24.5 -11t10.5 -24q0 -15 -19 -30l-659 -545l659 -545q19 -15 19 -31q0 -13 -10.5 -23.5 t-24.5 -10.5q-11 0 -23 8l-684 561q-18 15 -18 41z" />
<glyph unicode="l" d="M123 18v1500q0 13 10.5 23.5t24.5 10.5t24.5 -10.5t10.5 -23.5v-1500q0 -13 -10.5 -23.5t-24.5 -10.5t-24.5 10.5t-10.5 23.5z" />
<glyph unicode="m" horiz-adv-x="1779" d="M123 18v1149q0 13 10.5 24t24.5 11t24.5 -11t10.5 -24v-133q57 86 148 136.5t198 50.5q120 0 216.5 -65.5t141.5 -170.5q50 106 151.5 171t225.5 65q158 0 270.5 -112.5t112.5 -270.5v-820q0 -13 -10.5 -23.5t-24.5 -10.5t-24.5 10.5t-10.5 23.5v820q0 130 -92 221.5 t-221 91.5q-145 0 -247.5 -101.5t-102.5 -246.5v-785q0 -13 -10.5 -23.5t-24.5 -10.5t-24.5 10.5t-10.5 23.5v820q0 131 -91.5 222t-223.5 91q-143 0 -244.5 -102t-101.5 -246v-785q0 -13 -10.5 -23.5t-24.5 -10.5t-24.5 10.5t-10.5 23.5z" />
<glyph unicode="n" horiz-adv-x="1257" d="M123 18v1149q0 13 10.5 24t24.5 11t24.5 -11t10.5 -24v-206q70 118 191 189t261 71q203 0 346.5 -143.5t143.5 -344.5v-715q0 -13 -10.5 -23.5t-24.5 -10.5t-24.5 10.5t-10.5 23.5v715q0 173 -123.5 295.5t-296.5 122.5q-122 0 -226 -60.5t-165 -165.5t-61 -229v-678 q0 -13 -10.5 -23.5t-24.5 -10.5t-24.5 10.5t-10.5 23.5z" />
<glyph unicode="o" horiz-adv-x="1423" d="M82 594q0 170 84.5 314.5t229.5 228.5t315 84q171 0 316 -84t229.5 -228.5t84.5 -314.5q0 -171 -84.5 -316t-229.5 -229t-316 -84q-170 0 -315 84t-229.5 229t-84.5 316zM154 594q0 -114 44 -217.5t119 -178.5t178 -119t216 -44q114 0 217.5 44t178.5 119t119 178.5 t44 217.5q0 113 -44 216.5t-119 178.5t-178.5 119.5t-217.5 44.5q-113 0 -216 -44.5t-178 -119.5t-119 -178.5t-44 -216.5z" />
<glyph unicode="p" horiz-adv-x="1462" d="M123 -332v1499q0 13 10.5 24t24.5 11t24.5 -11t10.5 -24l2 -286q77 154 227.5 247t329.5 93q128 0 244 -49.5t200 -134t134 -201t50 -244.5q0 -127 -50 -243.5t-134 -200.5t-200.5 -133.5t-243.5 -49.5q-179 0 -329.5 93t-227.5 247l-2 -637q0 -14 -10.5 -24.5 t-24.5 -10.5t-24.5 10.5t-10.5 24.5zM193 592q0 -113 44 -216.5t119 -178.5t178.5 -119.5t217.5 -44.5t217 44.5t177.5 119.5t118.5 178.5t44 216.5q0 152 -74 280.5t-202.5 203.5t-280.5 75t-280.5 -75t-203 -203.5t-75.5 -280.5z" />
<glyph unicode="q" horiz-adv-x="1462" d="M82 592q0 171 84.5 316t229.5 229t315 84q179 0 329.5 -93t227.5 -247l2 286q0 13 11 24t24 11t23.5 -10.5t10.5 -24.5v-1499q0 -14 -10.5 -24.5t-23.5 -10.5t-24 10.5t-11 24.5l-2 637q-77 -154 -227.5 -247t-329.5 -93q-170 0 -315 84t-229.5 228.5t-84.5 314.5z M154 592q0 -113 44 -216.5t118.5 -178.5t177.5 -119.5t217 -44.5t217.5 44.5t178.5 119.5t119 178.5t44 216.5q-1 152 -75.5 280.5t-203 203.5t-280.5 75t-280.5 -75t-202.5 -203.5t-74 -280.5z" />
<glyph unicode="r" horiz-adv-x="669" d="M123 18v1149q0 13 10.5 24t24.5 11t24.5 -11t10.5 -24v-145q61 92 157.5 145.5t208.5 53.5q44 0 64 -4q13 -3 21 -15q7 -10 7 -21v-5q-3 -13 -15 -22t-26 -7q-32 4 -51 4q-151 0 -258.5 -107.5t-107.5 -259.5v-766q0 -13 -10.5 -23.5t-24.5 -10.5t-24.5 10.5t-10.5 23.5z " />
<glyph unicode="s" horiz-adv-x="1089" d="M84 92q-2 6 -2 12q0 8 4 15q6 12 20.5 16t26.5 -2q183 -100 404 -100q178 0 287.5 73.5t109.5 200.5q0 108 -83.5 182.5t-213.5 92.5l-201 26q-145 19 -231 103.5t-86 210.5q0 140 117 219.5t309 79.5q209 0 393 -91q12 -6 16 -20.5t-2 -26.5t-20.5 -16t-26.5 2 q-171 82 -360 82q-162 0 -257 -61t-95 -170q0 -90 72 -158.5t184 -83.5l200 -27q164 -22 261.5 -112.5t97.5 -235.5q0 -157 -128 -247.5t-343 -90.5q-247 0 -437 107q-12 6 -16 20z" />
<glyph unicode="t" horiz-adv-x="606" d="M25 1151q0 14 10.5 24.5t23.5 10.5h121v250q0 13 10.5 23.5t24.5 10.5t24.5 -10.5t10.5 -23.5v-250h297q13 0 24 -11t11 -24t-11 -24t-24 -11h-297v-837q0 -88 60.5 -148.5t148.5 -60.5h88q13 0 24 -11t11 -24t-11 -24t-24 -11h-88q-116 0 -197.5 80.5t-81.5 195.5v840 h-121q-13 0 -23.5 10.5t-10.5 24.5z" />
<glyph unicode="u" horiz-adv-x="1257" d="M123 453v714q0 13 10.5 24t24.5 11t24.5 -11t10.5 -24v-714q0 -172 122 -295t295 -123q189 0 322 132.5t133 321.5v678q0 13 10.5 24t24.5 11t24.5 -11t10.5 -24v-1149q0 -13 -10.5 -23.5t-24.5 -10.5t-24.5 10.5t-10.5 23.5v211q-70 -121 -190.5 -192.5t-264.5 -71.5 q-202 0 -344.5 143.5t-142.5 344.5z" />
<glyph unicode="v" horiz-adv-x="1159" d="M25 1167q0 14 10.5 24.5t23.5 10.5q11 0 20.5 -6.5t12.5 -15.5l488 -1092l487 1092q3 9 13 15.5t20 6.5q14 0 24.5 -11t10.5 -24q0 -8 -5 -18l-501 -1129q-5 -14 -19 -25t-30 -11q-17 0 -31 11t-19 25l-501 1129q-4 8 -4 18z" />
<glyph unicode="w" horiz-adv-x="1695" d="M25 1167q0 14 10.5 24.5t23.5 10.5q11 0 21.5 -10t13.5 -21l355 -1075l350 1063q15 43 49 43t49 -43l350 -1063l355 1075q3 12 13 21.5t21 9.5q14 0 24.5 -11t10.5 -24q0 -10 -2 -16l-373 -1131q-5 -15 -18.5 -25.5t-30.5 -10.5t-30.5 10.5t-18.5 25.5l-350 1061 l-350 -1061q-5 -15 -18.5 -25.5t-30.5 -10.5t-31 10.5t-19 25.5l-372 1131q-2 6 -2 16z" />
<glyph unicode="x" horiz-adv-x="1032" d="M25 18q0 10 8 21l440 555l-440 553q-8 12 -8 20q0 14 10.5 24.5t23.5 10.5q18 0 31 -16l426 -539l426 539q13 16 31 16q13 0 24 -11t11 -24q0 -7 -9 -20l-440 -553l440 -555q9 -13 9 -21q0 -13 -10.5 -23.5t-24.5 -10.5q-18 0 -31 16l-426 541l-426 -541q-13 -16 -31 -16 q-13 0 -23.5 10t-10.5 24z" />
<glyph unicode="y" horiz-adv-x="1159" d="M25 1167q0 14 10.5 24.5t23.5 10.5q11 0 20.5 -6.5t12.5 -15.5l488 -1092l487 1092q3 9 13 15.5t20 6.5q14 0 24.5 -11t10.5 -24q0 -8 -5 -18l-665 -1493q-3 -9 -13 -16t-20 -7q-14 0 -24.5 10.5t-10.5 24.5q0 11 4 19l140 315l-512 1147q-4 8 -4 18z" />
<glyph unicode="z" horiz-adv-x="1026" d="M41 49q0 21 14 35l838 1032h-817q-14 0 -24.5 11t-10.5 24t10.5 24t24.5 11h860q20 0 34.5 -14.5t14.5 -34.5q0 -21 -14 -35l-838 -1032h817q14 0 24.5 -11t10.5 -24t-10.5 -24t-24.5 -11h-860q-20 0 -34.5 14.5t-14.5 34.5z" />
<glyph unicode="{" horiz-adv-x="663" d="M131 594q0 14 10.5 24.5t24.5 10.5q71 0 122.5 51t51.5 123v487q0 101 72 173.5t172 72.5q13 0 23.5 -10.5t10.5 -24.5t-10.5 -24.5t-23.5 -10.5q-72 0 -122 -51t-50 -125v-487q0 -65 -33 -121.5t-88 -87.5q55 -33 88 -88.5t33 -120.5v-487q0 -75 50 -127t122 -52 q14 0 24 -10.5t10 -23.5q0 -14 -10.5 -24.5t-23.5 -10.5q-100 0 -172 73t-72 175v487q0 71 -52 122.5t-122 51.5q-14 0 -24.5 10.5t-10.5 24.5z" />
<glyph unicode="|" horiz-adv-x="561" d="M246 -332v1850q0 13 10.5 23.5t24.5 10.5q13 0 23.5 -10t10.5 -24v-1850q0 -14 -10.5 -24.5t-23.5 -10.5t-24 10.5t-11 24.5z" />
<glyph unicode="}" horiz-adv-x="663" d="M45 -315q0 13 10.5 23.5t24.5 10.5q72 0 122 51.5t50 125.5v487q0 65 33 121.5t88 87.5q-55 33 -88 88.5t-33 120.5v487q0 75 -50 126.5t-122 51.5q-14 0 -24.5 11t-10.5 24t10.5 24t24.5 11q100 0 172 -73t72 -175v-487q0 -71 52 -122.5t122 -51.5q13 0 23.5 -10.5 t10.5 -24.5t-10.5 -24.5t-23.5 -10.5q-71 0 -122.5 -51t-51.5 -123v-487q0 -101 -72 -173.5t-172 -72.5q-14 0 -24.5 11t-10.5 24z" />
<glyph unicode="~" horiz-adv-x="915" d="M123 526q0 80 56.5 136.5t135.5 56.5q56 0 102 -30t70 -79q14 -32 45 -52.5t68 -20.5q50 0 86.5 36.5t36.5 85.5q0 13 10.5 24t24.5 11t24.5 -11t10.5 -24q0 -79 -56.5 -135.5t-136.5 -56.5q-56 0 -103 30t-69 78q-15 33 -45.5 53.5t-67.5 20.5q-51 0 -86.5 -36 t-35.5 -87q0 -13 -10.5 -23.5t-24.5 -10.5t-24.5 10.5t-10.5 23.5z" />
<glyph unicode="&#xa1;" d="M100 1497q0 23 16.5 39t41.5 16q23 0 40 -16t17 -39t-17 -39t-40 -16q-25 0 -41.5 16t-16.5 39zM123 18l10 1168q0 10 7 17t18 7q10 0 17 -7t7 -17l11 -1168q0 -13 -10.5 -23.5t-24.5 -10.5t-24.5 10.5t-10.5 23.5z" />
<glyph unicode="&#xa2;" horiz-adv-x="1224" d="M82 594q0 119 43.5 228t118 191t177.5 136t220 68v126q0 13 10.5 24t24.5 11t24.5 -11t10.5 -24v-122h2q122 0 233 -44.5t199 -125.5q10 -10 10 -27q0 -14 -10.5 -24.5t-24.5 -10.5t-22 8q-166 156 -385 156q-113 0 -216.5 -44.5t-178.5 -119.5t-119.5 -178.5 t-44.5 -216.5t44.5 -216.5t119.5 -178.5t178.5 -119.5t216.5 -44.5q220 0 385 155q9 9 22 9q14 0 24.5 -10.5t10.5 -24.5q0 -17 -10 -27q-88 -81 -199 -125.5t-233 -44.5h-2v-123q0 -13 -10.5 -23.5t-24.5 -10.5t-24.5 10.5t-10.5 23.5v127q-156 17 -284 104t-201.5 224 t-73.5 295z" />
<glyph unicode="&#xa3;" horiz-adv-x="1230" d="M66 768q0 14 10.5 24.5t23.5 10.5h168v260q0 100 38 194t110 166q97 97 226.5 131.5t259.5 0t228 -131.5q11 -11 11 -24t-10.5 -24t-24.5 -11q-15 0 -25 10q-128 125 -309 125q-182 0 -309 -127.5t-127 -308.5v-260h565q13 0 24 -10.5t11 -24.5t-11 -24.5t-24 -10.5h-565 v-420q0 -55 -19 -114q91 34 190 12t171 -96q82 -79 197.5 -79t197.5 79l33 32q11 11 24 11q14 0 24.5 -11t10.5 -24q0 -15 -10 -25l-33 -32q-101 -101 -246.5 -101t-246.5 101q-82 85 -196.5 85t-196.5 -85l-76 -72q-10 -10 -25 -10q-14 0 -24.5 10.5t-10.5 23.5q0 14 11 25 l75 72q82 89 82 200v418h-168q-13 0 -23.5 10.5t-10.5 24.5z" />
<glyph unicode="&#xa4;" horiz-adv-x="1456" d="M98 594q0 240 160 418l-131 133q-9 11 -9 25.5t9 23.5q11 10 25.5 10t23.5 -10l131 -133q181 160 420 160q236 0 420 -160l133 133q10 9 25 9t24 -9q11 -10 11 -25t-11 -24l-133 -133q162 -180 162 -418q0 -239 -162 -422l133 -131q9 -11 9 -25.5t-9 -23.5 q-11 -10 -25.5 -10t-23.5 10l-133 133q-181 -160 -420 -160q-240 0 -418 160l-133 -133q-10 -9 -25 -9t-24 9q-11 10 -11 25t11 24l131 131q-160 181 -160 422zM170 594q0 -114 44 -217.5t119 -178.5t178 -119t216 -44q114 0 217.5 44t178.5 119t119 178.5t44 217.5 q0 113 -44 216.5t-119 178.5t-178.5 119.5t-217.5 44.5q-113 0 -216 -44.5t-178 -119.5t-119 -178.5t-44 -216.5z" />
<glyph unicode="&#xa5;" horiz-adv-x="1232" d="M31 1518q0 13 10.5 23.5t24.5 10.5q19 0 30 -18l520 -703l521 703q11 18 30 18q14 0 24.5 -10.5t10.5 -23.5q0 -12 -6 -21l-360 -485h260q13 0 23.5 -10.5t10.5 -24.5t-10.5 -24.5t-23.5 -10.5h-314l-129 -174h443q13 0 23.5 -10.5t10.5 -24.5t-10.5 -24.5t-23.5 -10.5 h-445v-680q0 -13 -10.5 -23.5t-24.5 -10.5t-24 10t-10 24v680h-445q-13 0 -24 11t-11 24t11 24t24 11h441l-129 174h-312q-13 0 -24 11t-11 24t11 24t24 11h260l-360 485q-6 9 -6 21z" />
<glyph unicode="&#xa6;" d="M123 -84v555q0 13 10.5 24t24.5 11t24.5 -11t10.5 -24v-555q0 -14 -10.5 -24.5t-24.5 -10.5t-24.5 10.5t-10.5 24.5zM123 717v557q0 14 10.5 24.5t24.5 10.5t24.5 -10.5t10.5 -24.5v-557q0 -13 -10.5 -24t-24.5 -11t-24.5 11t-10.5 24z" />
<glyph unicode="&#xa7;" horiz-adv-x="1007" d="M102 594q0 101 62.5 186.5t163.5 128.5q-101 42 -163.5 126.5t-62.5 185.5q0 145 117.5 247.5t284.5 102.5q154 0 270.5 -91t128.5 -223q0 -15 -10.5 -25.5t-24.5 -10.5q-13 0 -22.5 9t-11.5 21q-12 106 -107 177t-223 71q-137 0 -235.5 -81t-98.5 -197t98.5 -197.5 t235.5 -81.5q165 0 283 -102.5t118 -245.5q0 -101 -62 -186.5t-163 -128.5q101 -42 163 -126.5t62 -185.5q0 -145 -117 -247.5t-284 -102.5q-154 0 -271 91t-129 222q0 15 10.5 26t24.5 11q13 0 23 -9t12 -21q12 -106 107 -177t223 -71q137 0 235.5 81t98.5 197t-98.5 197.5 t-235.5 81.5q-165 0 -283.5 102.5t-118.5 245.5zM170 594q0 -115 98.5 -197t235.5 -82t235.5 82t98.5 197t-98.5 196.5t-235.5 81.5t-235.5 -81.5t-98.5 -196.5z" />
<glyph unicode="&#xa8;" horiz-adv-x="563" d="M31 1522q0 20 14.5 34.5t34.5 14.5t34.5 -14.5t14.5 -34.5t-14.5 -34.5t-34.5 -14.5t-34.5 14.5t-14.5 34.5zM436 1522q0 20 14.5 34.5t34.5 14.5t33.5 -14.5t13.5 -34.5t-13.5 -34.5t-33.5 -14.5t-34.5 14.5t-14.5 34.5z" />
<glyph unicode="&#xa9;" horiz-adv-x="1419" d="M82 594q0 170 84 314.5t228.5 228.5t314.5 84q171 0 315.5 -84t228.5 -228.5t84 -314.5q0 -171 -84 -316t-228.5 -229t-315.5 -84q-170 0 -314.5 84t-228.5 229t-84 316zM141 594q0 -155 76.5 -286t207.5 -207t284 -76q155 0 286 76t207 207t76 286t-76 285.5t-207 206 t-286 75.5q-153 0 -284 -75.5t-207.5 -206t-76.5 -285.5zM309 594q0 110 54 202.5t146.5 146t201.5 52.5q163 3 284 -118q9 -9 9.5 -24t-9.5 -26q-11 -9 -25 -9t-24 9q-99 99 -235 99q-138 0 -234.5 -97t-95.5 -235q-1 -136 95.5 -233t234.5 -97q134 0 235 94q10 9 25 9 t24 -9q10 -11 9.5 -24.5t-9.5 -24.5q-120 -117 -284 -114q-166 -1 -284 116t-118 283z" />
<glyph unicode="&#xaa;" horiz-adv-x="706" d="M82 1153q0 92 68 150.5t200 58.5q69 0 127.5 -24.5t91.5 -65.5v119q0 60 -60.5 101.5t-148.5 41.5q-67 0 -124.5 -19t-90.5 -51q-5 -4 -12 -4t-12 4t-5 12t5 13q38 38 101 60t138 22q101 0 172.5 -53t71.5 -127v-422q0 -6 -5 -11.5t-11 -5.5q-7 0 -13 5.5t-6 11.5v92 q-33 -55 -91 -87t-128 -32q-132 0 -200 59t-68 152zM117 1153q0 -76 59 -125t174 -49q90 0 154.5 57.5t64.5 137.5q0 64 -64 108.5t-155 44.5q-115 0 -174 -49t-59 -125z" />
<glyph unicode="&#xab;" horiz-adv-x="722" d="M66 593q0 21 14 36l301 301q9 9 23.5 9t25.5 -9q9 -10 9 -25t-9 -24l-287 -287l285 -287q10 -9 10 -24t-10 -25q-9 -9 -23.5 -9t-25.5 9l-299 301q-14 13 -14 34zM284 593q0 21 13 36l301 301q9 9 23.5 9t25.5 -9q9 -10 9 -25t-9 -24l-287 -287l285 -287q11 -9 11 -24 t-11 -25q-9 -9 -23.5 -9t-25.5 9l-299 301q-13 13 -13 34z" />
<glyph unicode="&#xac;" horiz-adv-x="909" d="M106 594q0 14 11 24.5t24 10.5h596q20 0 34.5 -14.5t14.5 -34.5v-144q0 -14 -10.5 -24.5t-23.5 -10.5q-14 0 -24.5 10.5t-10.5 24.5v123h-576q-13 0 -24 10.5t-11 24.5z" />
<glyph unicode="&#xad;" horiz-adv-x="950" d="M127 594q0 14 10.5 24.5t24.5 10.5h626q14 0 24.5 -10.5t10.5 -24.5t-10.5 -24.5t-24.5 -10.5h-626q-14 0 -24.5 10.5t-10.5 24.5z" />
<glyph unicode="&#xae;" horiz-adv-x="653" d="M82 1327q0 100 72.5 172t173.5 72q100 0 171.5 -72t71.5 -172q0 -101 -71.5 -173.5t-171.5 -72.5q-101 0 -173.5 72.5t-72.5 173.5zM96 1327q0 -96 68 -163.5t164 -67.5q94 0 161.5 67.5t67.5 163.5q0 94 -67.5 161.5t-161.5 67.5q-95 0 -163.5 -67.5t-68.5 -161.5z M215 1171v316h141q43 0 73 -29t30 -69q0 -36 -23 -63.5t-57 -35.5l59 -119h-16l-57 117h-136v-117h-14zM229 1303h127q38 0 63 24.5t25 61.5q0 36 -25 61t-63 25h-127v-172z" />
<glyph unicode="&#xaf;" horiz-adv-x="628" d="M106 1501q0 13 11 24t24 11h346q13 0 24 -11t11 -24t-11 -24t-24 -11h-346q-13 0 -24 11t-11 24z" />
<glyph unicode="&#xb0;" horiz-adv-x="622" d="M102 1362q0 86 61.5 147.5t147.5 61.5t147.5 -61.5t61.5 -147.5t-61.5 -147.5t-147.5 -61.5t-147.5 61.5t-61.5 147.5zM172 1362q0 -58 41 -98.5t98 -40.5q59 0 99.5 40.5t40.5 98.5q0 57 -41 98t-99 41q-57 0 -98 -41t-41 -98z" />
<glyph unicode="&#xb1;" horiz-adv-x="1390" d="M86 35q0 13 11 24t24 11h1149q14 0 24.5 -11t10.5 -24t-10.5 -24t-24.5 -11h-1149q-13 0 -24 11t-11 24zM86 768q0 14 11 24.5t24 10.5h541v364q0 14 10.5 24.5t23.5 10.5q14 0 24.5 -11t10.5 -24v-364h539q14 0 24.5 -10.5t10.5 -24.5t-10.5 -24.5t-24.5 -10.5h-539 v-364q0 -13 -10.5 -24t-24.5 -11q-13 0 -23.5 10.5t-10.5 24.5v364h-541q-13 0 -24 10.5t-11 24.5z" />
<glyph unicode="&#xb2;" horiz-adv-x="688" d="M82 1278v12q0 109 76.5 185.5t185.5 76.5q108 0 185 -77t77 -185q0 -119 -94 -200l-344 -287h395q7 0 13 -5.5t6 -13.5q0 -6 -6 -11t-13 -5h-424q-9 0 -16.5 7.5t-7.5 17.5q0 11 12 20l362 305q80 67 80 172q0 95 -65.5 162.5t-159.5 67.5q-95 0 -161 -67t-66 -163v-12 q0 -7 -5.5 -12.5t-13.5 -5.5q-6 0 -11 5.5t-5 12.5z" />
<glyph unicode="&#xb3;" horiz-adv-x="686" d="M82 969q0 18 16 18q8 0 13.5 -5.5t5.5 -12.5q2 -77 67.5 -130t159.5 -53q93 0 159 54t66 129t-66 129.5t-159 54.5h-45q-6 0 -11 5t-5 11q0 7 5 13t11 6h45q83 0 142 48.5t59 117.5q0 68 -59 116t-142 48t-142 -48t-59 -116q0 -8 -5.5 -13.5t-12.5 -5.5t-13 5.5t-6 13.5 q1 83 71 141.5t167 58.5t166.5 -58.5t69.5 -141.5q0 -61 -38 -110t-100 -73q73 -25 117.5 -79.5t44.5 -122.5q0 -90 -76 -153.5t-184 -63.5q-109 0 -185.5 63t-76.5 154z" />
<glyph unicode="&#xb4;" horiz-adv-x="716" d="M174 1427q0 16 21 25l282 113q15 6 25 6q17 0 29 -12t12 -29q0 -30 -31 -39l-301 -86q-8 -2 -12 -2q-11 0 -18 7t-7 17z" />
<glyph unicode="&#xb6;" horiz-adv-x="1150" d="M51 1153q0 158 112.5 270.5t270.5 112.5h545q20 0 34.5 -14.5t14.5 -34.5v-1469q0 -13 -10.5 -23.5t-24.5 -10.5t-24.5 10.5t-10.5 23.5v1448h-280v-1448q0 -13 -10.5 -23.5t-24.5 -10.5t-24.5 10.5t-10.5 23.5v750h-174q-158 0 -270.5 112.5t-112.5 272.5zM123 1153 q0 -132 91 -223.5t220 -91.5h174v628h-174q-129 0 -220 -92t-91 -221z" />
<glyph unicode="&#xb7;" horiz-adv-x="370" d="M72 594q0 25 18.5 43t44.5 18t44 -18t18 -43q0 -28 -18 -47t-44 -19t-44.5 19t-18.5 47z" />
<glyph unicode="&#xb8;" horiz-adv-x="667" d="M208.5 -307q4.5 12 15 14t20.5 -10q17 -26 55 -39q39 -11 75 10t46 60q15 57 -29 96t-100 22q-8 -4 -15 -4q-10 0 -17 8.5t-3 22.5l43 154l35 -11l-35 -129q23 5 61 -2q54 -15 82 -64t15 -104q-15 -54 -64 -82.5t-104 -13.5q-48 16 -76 51q-9 9 -4.5 21z" />
<glyph unicode="&#xb9;" horiz-adv-x="399" d="M102 1460q0 11 11 15l127 75q4 2 12 2q10 0 17 -7t7 -17v-742q0 -7 -5 -12.5t-11 -5.5q-8 0 -13 5t-5 13v723l-115 -65q-1 0 -3 -1t-3 -1q-8 0 -13.5 5.5t-5.5 12.5z" />
<glyph unicode="&#xba;" horiz-adv-x="792" d="M82 1257q0 129 92 221.5t221 92.5q130 0 223 -92.5t93 -221.5q0 -130 -92.5 -222.5t-223.5 -92.5q-129 0 -221 92.5t-92 222.5zM117 1257q0 -117 81 -198.5t197 -81.5q117 0 199 81.5t82 198.5q0 116 -82 197.5t-199 81.5q-115 0 -196.5 -81.5t-81.5 -197.5z" />
<glyph unicode="&#xbb;" horiz-adv-x="722" d="M67 905q0 15 9 25q10 9 25 9t24 -9l301 -301q14 -15 14 -36t-14 -34l-299 -301q-11 -9 -25.5 -9t-23.5 9q-10 10 -10 25t10 24l284 287l-286 287q-9 9 -9 24zM284 283q0 15 11 24l285 287l-287 287q-9 9 -9 24t9 25q11 9 25.5 9t23.5 -9l301 -301q13 -15 13 -36t-13 -34 l-299 -301q-10 -9 -25 -9t-24 9q-11 10 -11 25z" />
<glyph unicode="&#xbc;" horiz-adv-x="1263" d="M102 1460q0 11 11 15l127 75q4 2 12 2q10 0 17 -7t7 -17v-742q0 -7 -5 -12.5t-11 -5.5q-8 0 -13 5t-5 13v723l-115 -65q-1 0 -3 -1t-3 -1q-8 0 -13.5 5.5t-5.5 12.5zM254 0q0 6 2 10l627 1530q4 12 16 12q6 0 11 -5t5 -11t-2 -10l-626 -1530q-4 -12 -17 -12q-6 0 -11 5 t-5 11zM664 209q0 9 6 18l381 531q7 10 20 10q9 0 17 -7.5t8 -17.5v-524h108q7 0 13 -5t6 -11q0 -7 -5.5 -13t-13.5 -6h-108v-182q0 -7 -5.5 -12.5t-13.5 -5.5q-6 0 -11 5.5t-5 12.5v182h-373q-9 0 -16.5 8t-7.5 17zM709 219h352v494z" />
<glyph unicode="&#xbd;" horiz-adv-x="1388" d="M102 1460q0 11 11 15l127 75q4 2 12 2q10 0 17 -7t7 -17v-742q0 -7 -5 -12.5t-11 -5.5q-8 0 -13 5t-5 13v723l-115 -65q-1 0 -3 -1t-3 -1q-8 0 -13.5 5.5t-5.5 12.5zM254 0q0 6 2 10l627 1530q4 12 16 12q6 0 11 -5t5 -11t-2 -10l-626 -1530q-4 -12 -17 -12q-6 0 -11 5 t-5 11zM782 510v12q0 109 76.5 185.5t185.5 76.5q108 0 185.5 -77t77.5 -185q0 -118 -95 -200l-344 -287h396q7 0 12.5 -5.5t5.5 -13.5q0 -6 -5.5 -11t-12.5 -5h-424q-9 0 -17 7.5t-8 17.5q0 11 12 20l363 305q80 67 80 172q0 95 -66 162.5t-160 67.5q-95 0 -161 -67 t-66 -163v-12q0 -8 -5.5 -13t-12.5 -5q-6 0 -11.5 5.5t-5.5 12.5z" />
<glyph unicode="&#xbe;" horiz-adv-x="1464" d="M82 969q0 18 16 18q8 0 13.5 -5.5t5.5 -12.5q2 -77 67.5 -130t159.5 -53q93 0 159 54t66 129t-66 129.5t-159 54.5h-45q-6 0 -11 5t-5 11q0 7 5 13t11 6h45q83 0 142 48.5t59 117.5q0 68 -59 116t-142 48t-142 -48t-59 -116q0 -8 -5.5 -13.5t-12.5 -5.5t-13 5.5t-6 13.5 q1 83 71 141.5t167 58.5t166.5 -58.5t69.5 -141.5q0 -61 -38 -110t-100 -73q73 -25 117.5 -79.5t44.5 -122.5q0 -90 -76 -153.5t-184 -63.5q-109 0 -185.5 63t-76.5 154zM455 0q0 6 2 10l626 1530q4 12 17 12q6 0 11 -5t5 -11t-2 -10l-627 -1530q-4 -12 -16 -12q-6 0 -11 5 t-5 11zM864 209q0 9 6 18l381 531q7 10 21 10q9 0 16.5 -7.5t7.5 -17.5v-524h109q7 0 12.5 -5t5.5 -11q0 -8 -5.5 -13.5t-12.5 -5.5h-109v-182q0 -8 -5 -13t-13 -5q-6 0 -11 5.5t-5 12.5v182h-373q-9 0 -17 8t-8 17zM909 219h353v494z" />
<glyph unicode="&#xbf;" horiz-adv-x="1210" d="M82 485q0 210 141.5 360.5t347.5 164.5v164q0 13 10.5 23.5t24.5 10.5t24.5 -10.5t10.5 -23.5v-183q0 -20 -14.5 -34.5t-34.5 -14.5q-183 -6 -311.5 -138.5t-128.5 -318.5q0 -187 133 -319.5t321 -132.5q181 0 312.5 124.5t140.5 303.5q0 13 10.5 24t24.5 11 q13 0 23.5 -10.5t10.5 -24.5q-9 -207 -160.5 -351.5t-361.5 -144.5q-143 0 -263.5 69.5t-190.5 189.5t-70 261zM551 1481q0 22 16 37.5t39 15.5t39.5 -15.5t16.5 -37.5q0 -25 -16.5 -41.5t-39.5 -16.5t-39 16.5t-16 41.5z" />
<glyph unicode="&#xc0;" horiz-adv-x="1396" d="M41 35l614 1485q11 32 43 32t43 -32l615 -1485q9 -20 -2 -35.5t-31 -15.5q-22 0 -33 22l-155 379h-873l-156 -379q-11 -22 -32 -22q-20 0 -31 15.5t-2 35.5zM289 453h819l-410 983zM518 1735q0 17 12 29t29 12q7 0 25 -7l282 -112q21 -9 21 -25q0 -10 -7 -17t-18 -7 q-4 0 -12 2l-301 86q-31 9 -31 39z" />
<glyph unicode="&#xc1;" horiz-adv-x="1396" d="M41 35l614 1485q11 32 43 32t43 -32l615 -1485q9 -20 -2 -35.5t-31 -15.5q-22 0 -33 22l-155 379h-873l-156 -379q-11 -22 -32 -22q-20 0 -31 15.5t-2 35.5zM289 453h819l-410 983zM514 1632q0 16 21 25l282 112q17 7 25 7q17 0 29 -12t12 -29q0 -30 -31 -39l-301 -86 q-8 -2 -12 -2q-11 0 -18 7t-7 17z" />
<glyph unicode="&#xc2;" horiz-adv-x="1396" d="M41 35l614 1485q11 32 43 32t43 -32l615 -1485q9 -20 -2 -35.5t-31 -15.5q-22 0 -33 22l-155 379h-873l-156 -379q-11 -22 -32 -22q-20 0 -31 15.5t-2 35.5zM289 453h819l-410 983zM522 1638q0 8 10 21l144 176q9 12 26 12q18 0 27 -12l143 -176q11 -15 11 -21 q0 -10 -8 -18t-19 -8q-13 0 -22 12l-132 156l-131 -156q-9 -12 -22 -12q-11 0 -19 8t-8 18z" />
<glyph unicode="&#xc3;" horiz-adv-x="1396" d="M41 35l614 1485q11 32 43 32t43 -32l615 -1485q9 -20 -2 -35.5t-31 -15.5q-22 0 -33 22l-155 379h-873l-156 -379q-11 -22 -32 -22q-20 0 -31 15.5t-2 35.5zM289 453h819l-410 983zM473 1649q0 55 39.5 94t91.5 39q38 0 70 -20t51 -54q26 -51 74 -51q34 0 56 22t22 56 q0 11 7.5 18.5t18.5 7.5t19 -8t8 -18q0 -56 -39 -94.5t-92 -38.5q-37 0 -70.5 19.5t-50.5 53.5q-9 21 -29.5 35t-44.5 14q-31 0 -54.5 -22.5t-23.5 -52.5q0 -11 -8 -19t-18 -8t-18.5 8t-8.5 19z" />
<glyph unicode="&#xc4;" horiz-adv-x="1396" d="M41 35l614 1485q11 32 43 32t43 -32l615 -1485q9 -20 -2 -35.5t-31 -15.5q-22 0 -33 22l-155 379h-873l-156 -379q-11 -22 -32 -22q-20 0 -31 15.5t-2 35.5zM289 453h819l-410 983zM449 1712q0 21 14 35t35 14q22 0 35.5 -13.5t13.5 -35.5q0 -21 -14 -35t-35 -14 q-20 0 -34.5 14.5t-14.5 34.5zM856 1712q0 21 14 35t35 14q20 0 33.5 -13.5t13.5 -35.5q0 -20 -13.5 -34.5t-33.5 -14.5t-34.5 14.5t-14.5 34.5z" />
<glyph unicode="&#xc5;" horiz-adv-x="1396" d="M41 35l614 1485q11 32 43 32t43 -32l615 -1485q9 -20 -2 -35.5t-31 -15.5q-22 0 -33 22l-155 379h-873l-156 -379q-11 -22 -32 -22q-20 0 -31 15.5t-2 35.5zM289 453h819l-410 983zM545 1743q0 61 45 105t108 44q62 0 106 -44t44 -105q0 -63 -44.5 -108.5t-105.5 -45.5 q-63 0 -108 45.5t-45 108.5zM602 1743q0 -40 28 -68t68 -28q38 0 66.5 28.5t28.5 67.5q0 38 -28.5 66t-66.5 28q-40 0 -68 -28t-28 -66z" />
<glyph unicode="&#xc6;" horiz-adv-x="2361" d="M31 20q0 9 12 27l1112 1469q17 20 41 20h1059q13 0 24 -11t11 -24t-11 -24t-24 -11h-1014v-663h873q13 0 23.5 -10.5t10.5 -24.5t-10.5 -24.5t-23.5 -10.5h-873v-663h1014q13 0 24 -11t11 -24t-11 -24t-24 -11h-1034q-20 0 -35 14.5t-15 34.5v336h-776l-297 -385 q-10 -16 -30 -16q-15 0 -26 10.5t-11 25.5zM449 455h722v962z" />
<glyph unicode="&#xc7;" horiz-adv-x="1511" d="M70 768q0 217 107.5 402t292.5 293t402 108q159 0 306 -62t258 -170q10 -10 10 -24q0 -13 -11 -24t-24 -11q-15 0 -25 10q-102 99 -234.5 154t-279.5 55q-148 0 -283.5 -58t-233.5 -156t-156 -233.5t-58 -283.5t58 -283.5t156 -233.5t233.5 -156t283.5 -58 q147 0 279.5 55t234.5 154q10 10 25 10q13 0 24 -11t11 -24q0 -14 -10 -24q-111 -108 -258 -170t-306 -62h-4l-20 -78q23 5 61 -2q54 -15 82 -64t15 -104q-15 -54 -64 -82.5t-104 -13.5q-48 16 -76 51q-9 9 -4.5 21t15 14t20.5 -10q17 -26 55 -39q39 -11 75 10t46 60 q15 57 -29 96t-100 22q-8 -4 -15 -4q-10 0 -17 8.5t-3 22.5l26 94q-157 8 -297.5 75t-242.5 173.5t-161.5 250.5t-59.5 302z" />
<glyph unicode="&#xc8;" horiz-adv-x="1312" d="M123 49v1438q0 20 14.5 34.5t34.5 14.5h1034q14 0 24.5 -11t10.5 -24t-10.5 -24t-24.5 -11h-1013v-663h872q13 0 24 -10.5t11 -24.5t-11 -24.5t-24 -10.5h-872v-663h1013q14 0 24.5 -11t10.5 -24t-10.5 -24t-24.5 -11h-1034q-20 0 -34.5 14.5t-14.5 34.5zM504 1735 q0 17 12 29t29 12q7 0 24 -7l283 -112q20 -9 20 -25q0 -10 -7 -17t-17 -7q-4 0 -12 2l-301 86q-31 9 -31 39z" />
<glyph unicode="&#xc9;" horiz-adv-x="1312" d="M123 49v1438q0 20 14.5 34.5t34.5 14.5h1034q14 0 24.5 -11t10.5 -24t-10.5 -24t-24.5 -11h-1013v-663h872q13 0 24 -10.5t11 -24.5t-11 -24.5t-24 -10.5h-872v-663h1013q14 0 24.5 -11t10.5 -24t-10.5 -24t-24.5 -11h-1034q-20 0 -34.5 14.5t-14.5 34.5zM504 1632 q0 16 20 25l283 112q17 7 24 7q17 0 29 -12t12 -29q0 -30 -30 -39l-301 -86q-8 -2 -13 -2q-10 0 -17 7t-7 17z" />
<glyph unicode="&#xca;" horiz-adv-x="1312" d="M123 49v1438q0 20 14.5 34.5t34.5 14.5h1034q14 0 24.5 -11t10.5 -24t-10.5 -24t-24.5 -11h-1013v-663h872q13 0 24 -10.5t11 -24.5t-11 -24.5t-24 -10.5h-872v-663h1013q14 0 24.5 -11t10.5 -24t-10.5 -24t-24.5 -11h-1034q-20 0 -34.5 14.5t-14.5 34.5zM502 1638 q0 8 10 21l143 176q9 12 27 12t27 -12l143 -176q10 -13 10 -21q0 -10 -8 -18t-18 -8q-14 0 -23 12l-131 156l-131 -156q-9 -12 -23 -12q-10 0 -18 8t-8 18z" />
<glyph unicode="&#xcb;" horiz-adv-x="1312" d="M123 49v1438q0 20 14.5 34.5t34.5 14.5h1034q14 0 24.5 -11t10.5 -24t-10.5 -24t-24.5 -11h-1013v-663h872q13 0 24 -10.5t11 -24.5t-11 -24.5t-24 -10.5h-872v-663h1013q14 0 24.5 -11t10.5 -24t-10.5 -24t-24.5 -11h-1034q-20 0 -34.5 14.5t-14.5 34.5zM406 1712 q0 21 14 35t35 14t35 -14t14 -35q0 -20 -14.5 -34.5t-34.5 -14.5t-34.5 14.5t-14.5 34.5zM811 1712q0 21 14 35t35 14q22 0 34.5 -13.5t12.5 -35.5q0 -21 -13 -35t-34 -14q-20 0 -34.5 14.5t-14.5 34.5z" />
<glyph unicode="&#xcc;" d="M-27 1735q0 17 12 29t29 12q8 0 25 -7l283 -112q20 -9 20 -25q0 -10 -7 -17t-18 -7q-4 0 -12 2l-301 86q-31 9 -31 39zM123 18v1500q0 13 10.5 23.5t24.5 10.5t24.5 -10.5t10.5 -23.5v-1500q0 -13 -10.5 -23.5t-24.5 -10.5t-24.5 10.5t-10.5 23.5z" />
<glyph unicode="&#xcd;" d="M-27 1632q0 16 21 25l282 112q18 7 25 7q17 0 29 -12t12 -29q0 -30 -31 -39l-301 -86q-8 -2 -12 -2q-11 0 -18 7t-7 17zM123 18v1500q0 13 10.5 23.5t24.5 10.5t24.5 -10.5t10.5 -23.5v-1500q0 -13 -10.5 -23.5t-24.5 -10.5t-24.5 10.5t-10.5 23.5z" />
<glyph unicode="&#xce;" d="M-23 1638q0 6 11 21l143 176q9 12 27 12q17 0 26 -12l144 -176q10 -13 10 -21q0 -10 -8 -18t-19 -8q-13 0 -22 12l-131 156l-131 -156q-9 -12 -23 -12q-11 0 -19 8t-8 18zM123 18v1500q0 13 10.5 23.5t24.5 10.5t24.5 -10.5t10.5 -23.5v-1500q0 -13 -10.5 -23.5 t-24.5 -10.5t-24.5 10.5t-10.5 23.5z" />
<glyph unicode="&#xcf;" d="M-94 1712q0 21 14 35t35 14t35 -14t14 -35q0 -20 -14.5 -34.5t-34.5 -14.5t-34.5 14.5t-14.5 34.5zM123 18v1500q0 13 10.5 23.5t24.5 10.5t24.5 -10.5t10.5 -23.5v-1500q0 -13 -10.5 -23.5t-24.5 -10.5t-24.5 10.5t-10.5 23.5zM311 1712q0 21 14 35t35 14q22 0 35 -13.5 t13 -35.5q0 -21 -13.5 -35t-34.5 -14q-20 0 -34.5 14.5t-14.5 34.5z" />
<glyph unicode="&#xd0;" horiz-adv-x="1525" d="M25 770q0 14 10.5 24.5t23.5 10.5h103v682q0 20 14.5 34.5t34.5 14.5h475q209 0 385.5 -103t279.5 -279.5t103 -385.5t-103 -385.5t-279.5 -279.5t-385.5 -103h-475q-20 0 -34.5 14.5t-14.5 34.5v686h-103q-13 0 -23.5 10.5t-10.5 24.5zM231 70h455q142 0 271 55 t222 148.5t148 222.5t55 272q0 142 -55 271t-148 222.5t-222 149t-271 55.5h-455v-661h316q13 0 24 -10.5t11 -24.5t-11 -24.5t-24 -10.5h-316v-665z" />
<glyph unicode="&#xd1;" horiz-adv-x="1431" d="M123 18v1498q0 15 12 25.5t27 10.5q21 0 31 -16l1046 -1417v1399q0 13 10.5 23.5t24.5 10.5t24.5 -10.5t10.5 -23.5v-1498q0 -15 -12 -25.5t-27 -10.5q-21 0 -31 16l-1046 1417v-1399q0 -13 -10.5 -23.5t-24.5 -10.5t-24.5 10.5t-10.5 23.5zM489 1628q0 55 40 94t92 39 q79 0 120 -73q27 -52 74 -52q34 0 56 22t22 56q0 10 8.5 18.5t18.5 8.5t18 -8t8 -19q0 -56 -39 -94.5t-92 -38.5q-37 0 -70.5 20t-50.5 54q-9 21 -29 35t-44 14q-31 0 -54.5 -22.5t-23.5 -53.5q0 -10 -8 -18t-19 -8t-19 8t-8 18z" />
<glyph unicode="&#xd2;" horiz-adv-x="1748" d="M72 768q0 217 107.5 402t292.5 293t402 108q218 0 403 -108t292.5 -292.5t107.5 -402.5t-107.5 -402.5t-292.5 -292.5t-403 -108q-217 0 -402 108t-292.5 293t-107.5 402zM141 768q0 -199 98.5 -368t267.5 -267t367 -98t367 98t268 267t99 368q0 148 -58.5 283.5 t-157 233.5t-234.5 156t-284 58t-284 -58t-234 -156t-156.5 -233.5t-58.5 -283.5zM690 1735q0 17 12 29t29 12q7 0 25 -7l282 -112q21 -9 21 -25q0 -10 -7 -17t-18 -7q-4 0 -12 2l-301 86q-31 9 -31 39z" />
<glyph unicode="&#xd3;" horiz-adv-x="1748" d="M72 768q0 163 63.5 311.5t170.5 256t256 171.5t312 64q217 0 402 -108t293 -293t108 -402t-108 -402t-293 -293t-402 -108q-163 0 -312 64t-256 171.5t-170.5 256t-63.5 311.5zM141 768q0 -199 98.5 -368t267.5 -267t367 -98t367 98t268 267t99 368q0 148 -58.5 283.5 t-157 233.5t-234.5 156t-284 58t-284 -58t-234 -156t-156.5 -233.5t-58.5 -283.5zM690 1632q0 16 21 25l282 112q18 7 25 7q17 0 29 -12t12 -29q0 -30 -31 -39l-301 -86q-8 -2 -12 -2q-11 0 -18 7t-7 17z" />
<glyph unicode="&#xd4;" horiz-adv-x="1748" d="M72 768q0 163 63.5 311.5t170.5 256t256 171.5t312 64q217 0 402 -108t293 -293t108 -402t-108 -402t-293 -293t-402 -108q-163 0 -312 64t-256 171.5t-170.5 256t-63.5 311.5zM141 768q0 -199 98.5 -368t267.5 -267t367 -98t367 98t268 267t99 368q0 148 -58.5 283.5 t-157 233.5t-234.5 156t-284 58t-284 -58t-234 -156t-156.5 -233.5t-58.5 -283.5zM694 1638q0 6 11 21l143 176q9 12 26 12q18 0 27 -12l143 -176q11 -15 11 -21q0 -10 -8 -18t-19 -8q-13 0 -22 12l-132 156l-131 -156q-9 -12 -22 -12q-11 0 -19 8t-8 18z" />
<glyph unicode="&#xd5;" horiz-adv-x="1748" d="M72 768q0 163 63.5 311.5t170.5 256t256 171.5t312 64q217 0 402 -108t293 -293t108 -402t-108 -402t-293 -293t-402 -108q-163 0 -312 64t-256 171.5t-170.5 256t-63.5 311.5zM143 768q0 -200 98 -368.5t266.5 -266.5t366.5 -98t366.5 98t267 266.5t98.5 368.5 q0 148 -58 283.5t-156.5 233.5t-234 156t-283.5 58t-283.5 -58t-233.5 -156t-156 -233.5t-58 -283.5zM645 1669q0 55 39.5 94t91.5 39q80 0 121 -73q27 -52 74 -52q34 0 56 22t22 56q0 11 8 19t18 8q11 0 19 -8t8 -19q0 -56 -39 -94.5t-92 -38.5q-37 0 -70.5 20t-50.5 54 q-9 21 -29.5 35t-44.5 14q-31 0 -54.5 -22.5t-23.5 -53.5q0 -11 -8 -19t-18 -8t-18.5 8t-8.5 19z" />
<glyph unicode="&#xd6;" horiz-adv-x="1748" d="M72 768q0 163 63.5 311.5t170.5 256t256 171.5t312 64q217 0 402 -108t293 -293t108 -402t-108 -402t-293 -293t-402 -108q-163 0 -312 64t-256 171.5t-170.5 256t-63.5 311.5zM143 768q0 -200 98 -368.5t266.5 -266.5t366.5 -98t366.5 98t267 266.5t98.5 368.5 q0 148 -58 283.5t-156.5 233.5t-234 156t-283.5 58t-283.5 -58t-233.5 -156t-156 -233.5t-58 -283.5zM623 1712q0 20 14.5 34.5t34.5 14.5t34.5 -14.5t14.5 -34.5t-14.5 -34.5t-34.5 -14.5t-34.5 14.5t-14.5 34.5zM1028 1712q0 20 14.5 34.5t34.5 14.5q21 0 34 -14t13 -35 t-13 -35t-34 -14q-20 0 -34.5 14.5t-14.5 34.5z" />
<glyph unicode="&#xd7;" horiz-adv-x="1355" d="M67 16.5q0 15.5 9 24.5l553 553l-551 551q-10 9 -10 24.5t10 24.5q9 9 24 9t25 -9l551 -551l549 551q10 9 25 9t24 -9q10 -10 10 -25t-10 -24l-549 -551l551 -553q10 -9 10 -24.5t-10 -24.5q-9 -9 -23.5 -9t-25.5 9l-551 553l-553 -553q-9 -9 -24.5 -9t-24.5 9t-9 24.5z " />
<glyph unicode="&#xd8;" horiz-adv-x="1769" d="M82 768q0 218 107.5 402.5t292.5 292.5t403 108q153 0 292 -55.5t248 -155.5l185 184q10 9 25 9t24 -9q11 -10 11 -25t-11 -24l-184 -184q101 -110 157 -250t56 -293q0 -217 -108 -402t-293 -293t-402 -108q-156 0 -295.5 55.5t-247.5 155.5l-184 -184q-10 -9 -25 -9 t-24 9q-11 10 -11 25t11 24l184 184q-100 109 -155.5 249t-55.5 294zM154 768q0 -140 49.5 -267t138.5 -227l1032 1035q-98 91 -224 140.5t-265 49.5q-148 0 -283.5 -58t-233.5 -156t-156 -233.5t-58 -283.5zM391 225q100 -91 227 -140.5t267 -49.5q198 0 366.5 98 t266.5 266.5t98 368.5q0 139 -51 266t-142 226z" />
<glyph unicode="&#xd9;" horiz-adv-x="1431" d="M123 559v959q0 13 10.5 23.5t24.5 10.5t24.5 -10.5t10.5 -23.5v-959q0 -143 70 -263.5t191 -190.5t263 -70t262.5 70t190 190.5t69.5 263.5v959q0 13 10.5 23.5t24.5 10.5t24.5 -10.5t10.5 -23.5v-959q0 -161 -79.5 -298t-216 -216.5t-296.5 -79.5q-161 0 -298 79.5 t-216.5 216.5t-79.5 298zM530 1735q0 17 12 29t29 12q7 0 25 -7l283 -112q20 -9 20 -25q0 -10 -7 -17t-18 -7q-4 0 -12 2l-301 86q-31 9 -31 39z" />
<glyph unicode="&#xda;" horiz-adv-x="1431" d="M123 559v959q0 13 10.5 23.5t24.5 10.5t24.5 -10.5t10.5 -23.5v-959q0 -143 70 -263.5t191 -190.5t263 -70t262.5 70t190 190.5t69.5 263.5v959q0 13 10.5 23.5t24.5 10.5t24.5 -10.5t10.5 -23.5v-959q0 -161 -79.5 -298t-216 -216.5t-296.5 -79.5q-161 0 -298 79.5 t-216.5 216.5t-79.5 298zM530 1632q0 16 21 25l283 112q17 7 24 7q17 0 29 -12t12 -29q0 -30 -31 -39l-301 -86q-8 -2 -12 -2q-11 0 -18 7t-7 17z" />
<glyph unicode="&#xdb;" horiz-adv-x="1431" d="M123 559v959q0 13 10.5 23.5t24.5 10.5t24.5 -10.5t10.5 -23.5v-959q0 -143 70 -263.5t191 -190.5t263 -70t262.5 70t190 190.5t69.5 263.5v959q0 13 10.5 23.5t24.5 10.5t24.5 -10.5t10.5 -23.5v-959q0 -161 -79.5 -298t-216 -216.5t-296.5 -79.5q-161 0 -298 79.5 t-216.5 216.5t-79.5 298zM535 1638q0 8 10 21l143 176q9 12 27 12q17 0 26 -12l144 -176q10 -13 10 -21q0 -10 -8 -18t-19 -8q-13 0 -22 12l-131 156l-131 -156q-9 -12 -23 -12q-11 0 -18.5 8t-7.5 18z" />
<glyph unicode="&#xdc;" horiz-adv-x="1431" d="M123 559v959q0 13 10.5 23.5t24.5 10.5t24.5 -10.5t10.5 -23.5v-959q0 -143 70 -263.5t191 -190.5t263 -70t262.5 70t190 190.5t69.5 263.5v959q0 13 10.5 23.5t24.5 10.5t24.5 -10.5t10.5 -23.5v-959q0 -161 -79.5 -298t-216 -216.5t-296.5 -79.5q-161 0 -298 79.5 t-216.5 216.5t-79.5 298zM465 1712q0 21 14 35t35 14t35 -14t14 -35q0 -20 -14.5 -34.5t-34.5 -14.5t-34.5 14.5t-14.5 34.5zM870 1712q0 21 14.5 35t35.5 14q22 0 34.5 -13.5t12.5 -35.5q0 -21 -13 -35t-34 -14q-20 0 -35 14.5t-15 34.5z" />
<glyph unicode="&#xdd;" horiz-adv-x="1273" d="M31 1518q0 13 10.5 23.5t24.5 10.5q19 0 30 -18l541 -731l541 731q11 18 30 18q14 0 24.5 -10.5t10.5 -23.5q0 -12 -6 -21l-565 -762v-717q0 -13 -10.5 -23.5t-24.5 -10.5t-24.5 10.5t-10.5 23.5v717l-565 762q-6 9 -6 21zM449 1632q0 16 20 25l283 112q17 7 24 7 q17 0 29 -12t12 -29q0 -30 -31 -39l-301 -86q-8 -2 -12 -2q-11 0 -17.5 7t-6.5 17z" />
<glyph unicode="&#xde;" horiz-adv-x="1331" d="M123 18v1500q0 13 10.5 23.5t24.5 10.5t24.5 -10.5t10.5 -23.5v-175h653q170 0 290.5 -119t120.5 -288q0 -170 -120.5 -291t-290.5 -121h-653v-506q0 -13 -10.5 -23.5t-24.5 -10.5t-24.5 10.5t-10.5 23.5zM193 594h653q142 0 241 99.5t99 242.5q0 140 -99 239t-241 99 h-653v-680z" />
<glyph unicode="&#xdf;" horiz-adv-x="1097" d="M123 18v1168q0 159 113 272t272 113t272 -113t113 -272q0 -104 -52 -192t-139 -140q137 -39 225.5 -155t88.5 -263q0 -181 -128.5 -308.5t-307.5 -127.5h-263q-13 0 -23.5 10.5t-10.5 24.5t10.5 24.5t23.5 10.5h263q151 0 257.5 107t106.5 259q0 151 -107 259t-257 108 h-263q-13 0 -23.5 10.5t-10.5 24.5t10.5 24t23.5 10h191q130 0 221.5 91.5t91.5 222.5q0 130 -91.5 221.5t-221.5 91.5t-222.5 -91.5t-92.5 -221.5v-1168q0 -13 -10.5 -23.5t-24.5 -10.5t-24.5 10.5t-10.5 23.5z" />
<glyph unicode="&#xe0;" horiz-adv-x="1241" d="M72 385q0 88 33 163t97 132.5t168.5 90t239.5 32.5q139 0 255.5 -48.5t183.5 -131.5v237q0 120 -122.5 204.5t-295.5 84.5q-135 0 -250 -38.5t-182 -102.5q-9 -9 -24.5 -9t-24.5 9t-9 24.5t9 24.5q75 75 202 119.5t279 44.5q132 0 244 -49t177.5 -132t65.5 -180v-842 q0 -13 -10.5 -23.5t-24.5 -10.5q-13 0 -23.5 10t-10.5 24v183q-67 -108 -183.5 -172t-255.5 -64q-134 0 -239 33t-169 91t-97 133t-33 163zM143 385q0 -154 118 -251t349 -97q181 0 310 115t129 276q0 127 -128.5 216t-310.5 89q-231 0 -349 -96.5t-118 -251.5zM426 1530 q0 17 12 29t29 12q10 0 25 -6l282 -113q21 -9 21 -25q0 -10 -7 -17t-18 -7q-4 0 -12 2l-301 86q-31 9 -31 39z" />
<glyph unicode="&#xe1;" horiz-adv-x="1241" d="M72 385q0 88 33 163t97 132.5t168.5 90t239.5 32.5q139 0 255.5 -48.5t183.5 -131.5v237q0 120 -122.5 204.5t-295.5 84.5q-135 0 -250 -38.5t-182 -102.5q-9 -9 -24.5 -9t-24.5 9t-9 24.5t9 24.5q75 75 202 119.5t279 44.5q132 0 244 -49t177.5 -132t65.5 -180v-842 q0 -13 -10.5 -23.5t-24.5 -10.5q-13 0 -23.5 10t-10.5 24v183q-67 -108 -183.5 -172t-255.5 -64q-134 0 -239 33t-169 91t-97 133t-33 163zM143 385q0 -154 118 -251t349 -97q181 0 310 115t129 276q0 127 -128.5 216t-310.5 89q-231 0 -349 -96.5t-118 -251.5zM426 1427 q0 16 20 25l283 113q15 6 25 6q17 0 29 -12t12 -29q0 -30 -31 -39l-301 -86q-8 -2 -12 -2q-11 0 -18 7t-7 17z" />
<glyph unicode="&#xe2;" horiz-adv-x="1241" d="M72 385q0 88 33 163t97 132.5t168.5 90t239.5 32.5q139 0 255.5 -48.5t183.5 -131.5v237q0 120 -122.5 204.5t-295.5 84.5q-135 0 -250 -38.5t-182 -102.5q-9 -9 -24.5 -9t-24.5 9t-9 24.5t9 24.5q75 75 202 119.5t279 44.5q132 0 244 -49t177.5 -132t65.5 -180v-842 q0 -13 -10.5 -23.5t-24.5 -10.5q-13 0 -23.5 10t-10.5 24v183q-67 -108 -183.5 -172t-255.5 -64q-134 0 -239 33t-169 91t-97 133t-33 163zM143 385q0 -154 118 -251t349 -97q181 0 310 115t129 276q0 127 -128.5 216t-310.5 89q-231 0 -349 -96.5t-118 -251.5zM430 1417 q0 8 10 21l144 176q9 12 26 12q18 0 27 -12l143 -176q11 -15 11 -21q0 -10 -8 -18t-19 -8q-14 0 -23 12l-131 156l-131 -156q-9 -12 -22 -12q-11 0 -19 8t-8 18z" />
<glyph unicode="&#xe3;" horiz-adv-x="1241" d="M72 385q0 88 33 163t97 132.5t168.5 90t239.5 32.5q139 0 255.5 -48.5t183.5 -131.5v237q0 120 -122.5 204.5t-295.5 84.5q-135 0 -250 -38.5t-182 -102.5q-9 -9 -24.5 -9t-24.5 9t-9 24.5t9 24.5q75 75 202 119.5t279 44.5q132 0 244 -49t177.5 -132t65.5 -180v-842 q0 -13 -10.5 -23.5t-24.5 -10.5q-13 0 -23.5 10t-10.5 24v183q-67 -108 -183.5 -172t-255.5 -64q-134 0 -239 33t-169 91t-97 133t-33 163zM143 385q0 -154 118 -251t349 -97q181 0 310 115t129 276q0 127 -128.5 216t-310.5 89q-231 0 -349 -96.5t-118 -251.5zM375 1438 q0 55 39.5 94t91.5 39q38 0 70 -20t51 -54q26 -51 73 -51q34 0 56 22t22 56q0 10 8 18t19 8t18.5 -8t7.5 -18q0 -56 -39 -94.5t-92 -38.5q-37 0 -70 19.5t-50 53.5q-9 21 -29.5 35t-44.5 14q-31 0 -54.5 -22.5t-23.5 -52.5q0 -10 -8 -18.5t-19 -8.5q-10 0 -18 8t-8 19z" />
<glyph unicode="&#xe4;" horiz-adv-x="1241" d="M72 385q0 88 33 163t97 132.5t168.5 90t239.5 32.5q139 0 255.5 -48.5t183.5 -131.5v237q0 120 -122.5 204.5t-295.5 84.5q-135 0 -250 -38.5t-182 -102.5q-9 -9 -24.5 -9t-24.5 9t-9 24.5t9 24.5q75 75 202 119.5t279 44.5q132 0 244 -49t177.5 -132t65.5 -180v-842 q0 -13 -10.5 -23.5t-24.5 -10.5q-13 0 -23.5 10t-10.5 24v183q-67 -108 -183.5 -172t-255.5 -64q-134 0 -239 33t-169 91t-97 133t-33 163zM143 385q0 -154 118 -251t349 -97q181 0 310 115t129 276q0 127 -128.5 216t-310.5 89q-231 0 -349 -96.5t-118 -251.5zM356 1522 q0 20 15 34.5t35 14.5t34.5 -14.5t14.5 -34.5t-14.5 -34.5t-34.5 -14.5t-35 14.5t-15 34.5zM762 1522q0 20 14.5 34.5t34.5 14.5t33.5 -14.5t13.5 -34.5t-13.5 -34.5t-33.5 -14.5t-34.5 14.5t-14.5 34.5z" />
<glyph unicode="&#xe5;" horiz-adv-x="1241" d="M72 385q0 88 33 163t97 132.5t168.5 90t239.5 32.5q139 0 255.5 -48.5t183.5 -131.5v237q0 120 -122.5 204.5t-295.5 84.5q-135 0 -250 -38.5t-182 -102.5q-9 -9 -24.5 -9t-24.5 9t-9 24.5t9 24.5q75 75 202 119.5t279 44.5q132 0 244 -49t177.5 -132t65.5 -180v-842 q0 -13 -10.5 -23.5t-24.5 -10.5q-13 0 -23.5 10t-10.5 24v183q-67 -108 -183.5 -172t-255.5 -64q-134 0 -239 33t-169 91t-97 133t-33 163zM143 385q0 -154 118 -251t349 -97q181 0 310 115t129 276q0 127 -128.5 216t-310.5 89q-231 0 -349 -96.5t-118 -251.5zM457 1489 q0 61 45 105t108 44q60 0 105 -44t45 -105q0 -63 -45 -108.5t-105 -45.5q-63 0 -108 45.5t-45 108.5zM514 1489q0 -40 27.5 -68t68.5 -28q38 0 65 28t27 68q0 38 -27 66t-65 28q-41 0 -68.5 -27.5t-27.5 -66.5z" />
<glyph unicode="&#xe6;" horiz-adv-x="2383" d="M72 385q0 88 33 163t97 132.5t168.5 90t239.5 32.5q139 0 255.5 -48.5t183.5 -131.5v237q0 120 -122.5 204.5t-295.5 84.5q-135 0 -250 -38.5t-182 -102.5q-9 -9 -24.5 -9t-24.5 9t-9 24.5t9 24.5q75 75 202 119.5t279 44.5q193 0 333.5 -100t151.5 -242 q79 155 229 248.5t330 93.5q124 0 238.5 -48t198 -129t135 -193.5t55.5 -236.5q0 -24 -14 -39.5t-35 -15.5h-1135q10 -145 86 -265t200.5 -189.5t270.5 -69.5q145 0 269.5 70.5t199.5 189.5q10 24 35 24q14 0 24.5 -10.5t10.5 -23.5q0 -12 -10 -25q-86 -136 -226 -215.5 t-303 -79.5q-180 0 -329 92.5t-228 247.5v-287q0 -13 -10.5 -23.5t-24.5 -10.5q-13 0 -23.5 10t-10.5 24v183q-67 -108 -183.5 -172t-255.5 -64q-134 0 -239 33t-169 91t-97 133t-33 163zM143 385q0 -154 118 -251t349 -97q181 0 310 115t129 276q0 127 -128.5 216 t-310.5 89q-231 0 -349 -96.5t-118 -251.5zM1118 629h1112q-14 220 -174 371t-381 151q-146 0 -270.5 -69t-200.5 -188.5t-86 -264.5z" />
<glyph unicode="&#xe7;" horiz-adv-x="1224" d="M82 594q0 170 84.5 314.5t230 228.5t316.5 84q122 0 233 -44.5t199 -125.5q10 -10 10 -27q0 -14 -10.5 -24.5t-24.5 -10.5t-22 8q-166 156 -385 156q-113 0 -216.5 -44.5t-178.5 -119.5t-119.5 -178.5t-44.5 -216.5t44.5 -216.5t119.5 -178.5t178.5 -119.5t216.5 -44.5 q220 0 385 155q9 9 22 9q14 0 24.5 -10.5t10.5 -24.5q0 -17 -10 -27q-88 -81 -199 -125.5t-233 -44.5h-6l-21 -80q23 5 62 -2q54 -15 82 -63.5t14 -104.5q-15 -54 -64 -82.5t-104 -13.5q-48 16 -76 51q-9 9 -4.5 21t15 14t20.5 -10q17 -26 55 -39q39 -11 75 10t46 60 q15 57 -29 96t-100 22q-8 -4 -14 -4q-10 0 -17.5 8.5t-3.5 22.5l27 96q-121 9 -230 61.5t-187.5 135t-124.5 194.5t-46 234z" />
<glyph unicode="&#xe8;" horiz-adv-x="1417" d="M82 594q0 170 84 314.5t228.5 228.5t314.5 84q166 0 308 -81t227 -220.5t91 -305.5q0 -24 -14 -39.5t-35 -15.5h-1134q10 -145 86 -265t200.5 -189.5t270.5 -69.5q145 0 269.5 70.5t199.5 189.5q10 24 34 24q14 0 24.5 -10.5t10.5 -23.5q0 -12 -10 -25 q-86 -136 -225.5 -215.5t-302.5 -79.5q-170 0 -314.5 84.5t-228.5 229.5t-84 315zM152 629h1112q-14 220 -174 371t-381 151q-146 0 -270.5 -69t-200.5 -188.5t-86 -264.5zM526 1530q0 17 12 29t29 12q10 0 25 -6l282 -113q21 -9 21 -25q0 -10 -7 -17t-18 -7q-4 0 -12 2 l-301 86q-31 9 -31 39z" />
<glyph unicode="&#xe9;" horiz-adv-x="1417" d="M82 594q0 170 84 314.5t228.5 228.5t314.5 84q166 0 308 -81t227 -220.5t91 -305.5q0 -24 -14 -39.5t-35 -15.5h-1134q10 -145 86 -265t200.5 -189.5t270.5 -69.5q145 0 269.5 70.5t199.5 189.5q10 24 34 24q14 0 24.5 -10.5t10.5 -23.5q0 -12 -10 -25 q-86 -136 -225.5 -215.5t-302.5 -79.5q-170 0 -314.5 84.5t-228.5 229.5t-84 315zM152 629h1112q-14 220 -174 371t-381 151q-146 0 -270.5 -69t-200.5 -188.5t-86 -264.5zM526 1427q0 16 21 25l282 113q15 6 25 6q17 0 29 -12t12 -29q0 -30 -31 -39l-301 -86q-8 -2 -12 -2 q-11 0 -18 7t-7 17z" />
<glyph unicode="&#xea;" horiz-adv-x="1417" d="M82 594q0 170 84 314.5t228.5 228.5t314.5 84q166 0 308 -81t227 -220.5t91 -305.5q0 -24 -14 -39.5t-35 -15.5h-1134q10 -145 86 -265t200.5 -189.5t270.5 -69.5q145 0 269.5 70.5t199.5 189.5q10 24 34 24q14 0 24.5 -10.5t10.5 -23.5q0 -12 -10 -25 q-86 -136 -225.5 -215.5t-302.5 -79.5q-170 0 -314.5 84.5t-228.5 229.5t-84 315zM152 629h1112q-14 220 -174 371t-381 151q-146 0 -270.5 -69t-200.5 -188.5t-86 -264.5zM530 1417q0 6 11 21l143 176q9 12 27 12q17 0 26 -12l144 -176q10 -13 10 -21q0 -10 -8 -18t-19 -8 q-13 0 -22 12l-131 156l-131 -156q-9 -12 -23 -12q-11 0 -19 8t-8 18z" />
<glyph unicode="&#xeb;" horiz-adv-x="1417" d="M82 594q0 170 84 314.5t228.5 228.5t314.5 84q166 0 308 -81t227 -220.5t91 -305.5q0 -24 -14 -39.5t-35 -15.5h-1134q10 -145 86 -265t200.5 -189.5t270.5 -69.5q145 0 269.5 70.5t199.5 189.5q10 24 34 24q14 0 24.5 -10.5t10.5 -23.5q0 -12 -10 -25 q-86 -136 -225.5 -215.5t-302.5 -79.5q-170 0 -314.5 84.5t-228.5 229.5t-84 315zM152 629h1112q-14 220 -174 371t-381 151q-146 0 -270.5 -69t-200.5 -188.5t-86 -264.5zM459 1522q0 20 14.5 34.5t34.5 14.5t34.5 -14.5t14.5 -34.5t-14.5 -34.5t-34.5 -14.5t-34.5 14.5 t-14.5 34.5zM864 1522q0 20 14.5 34.5t34.5 14.5t34 -14.5t14 -34.5t-14 -34.5t-34 -14.5t-34.5 14.5t-14.5 34.5z" />
<glyph unicode="&#xec;" d="M-27 1530q0 17 12 29t29 12q10 0 25 -6l283 -113q20 -9 20 -25q0 -10 -7 -17t-18 -7q-4 0 -12 2l-301 86q-31 9 -31 39zM123 18v1149q0 13 10.5 24t24.5 11t24.5 -11t10.5 -24v-1149q0 -13 -10.5 -23.5t-24.5 -10.5t-24.5 10.5t-10.5 23.5z" />
<glyph unicode="&#xed;" d="M-27 1427q0 16 21 25l282 113q15 6 25 6q17 0 29 -12t12 -29q0 -30 -31 -39l-301 -86q-8 -2 -12 -2q-11 0 -18 7t-7 17zM123 18v1149q0 13 10.5 24t24.5 11t24.5 -11t10.5 -24v-1149q0 -13 -10.5 -23.5t-24.5 -10.5t-24.5 10.5t-10.5 23.5z" />
<glyph unicode="&#xee;" d="M-23 1417q0 6 11 21l143 176q9 12 27 12q17 0 26 -12l144 -176q10 -13 10 -21q0 -10 -8 -18t-19 -8q-13 0 -22 12l-131 156l-131 -156q-9 -12 -23 -12q-11 0 -19 8t-8 18zM123 18v1149q0 13 10.5 24t24.5 11t24.5 -11t10.5 -24v-1149q0 -13 -10.5 -23.5t-24.5 -10.5 t-24.5 10.5t-10.5 23.5z" />
<glyph unicode="&#xef;" d="M-94 1522q0 20 14.5 34.5t34.5 14.5t34.5 -14.5t14.5 -34.5t-14.5 -34.5t-34.5 -14.5t-34.5 14.5t-14.5 34.5zM123 18v1149q0 13 10.5 24t24.5 11t24.5 -11t10.5 -24v-1149q0 -13 -10.5 -23.5t-24.5 -10.5t-24.5 10.5t-10.5 23.5zM311 1522q0 20 14.5 34.5t34.5 14.5 t34 -14.5t14 -34.5t-14 -34.5t-34 -14.5t-34.5 14.5t-14.5 34.5z" />
<glyph unicode="&#xf0;" horiz-adv-x="1384" d="M82 575q0 156 81.5 288.5t222 210t306.5 77.5q125 0 256 -72l2 6l-268 267l-168 -49q-9 -3 -16 -3q-14 0 -24.5 11t-10.5 24q0 12 9.5 22t21.5 13l133 39l-86 84q-11 11 -11 25q0 13 10.5 23.5t24.5 10.5q15 0 25 -10l112 -110l193 55q19 4 32 -6t13 -27q0 -26 -33 -35 l-149 -45l362 -368q85 -85 134 -197t49 -234q0 -166 -81.5 -306.5t-222.5 -222t-307 -81.5t-306.5 81.5t-222 222t-81.5 306.5zM154 575q0 -147 72 -272t196 -197.5t270 -72.5q148 0 272 72.5t195.5 197.5t71.5 272q0 136 -71.5 252t-195.5 184t-272 68q-146 0 -270 -68 t-196 -184t-72 -252z" />
<glyph unicode="&#xf1;" horiz-adv-x="1257" d="M123 18v1149q0 13 10.5 24t24.5 11t24.5 -11t10.5 -24v-206q70 118 191 189t261 71q203 0 346.5 -143.5t143.5 -344.5v-715q0 -13 -10.5 -23.5t-24.5 -10.5t-24.5 10.5t-10.5 23.5v715q0 173 -123.5 295.5t-296.5 122.5q-122 0 -226 -60.5t-165 -165.5t-61 -229v-678 q0 -13 -10.5 -23.5t-24.5 -10.5t-24.5 10.5t-10.5 23.5zM418 1438q0 55 39.5 94t91.5 39q38 0 70 -20t51 -54q26 -51 73 -51q34 0 56 22t22 56q0 10 8 18t19 8q10 0 18 -8t8 -18q0 -56 -39 -94.5t-92 -38.5q-37 0 -70 19.5t-50 53.5q-9 21 -29.5 35t-44.5 14 q-31 0 -54.5 -22.5t-23.5 -52.5q0 -10 -8.5 -18.5t-18.5 -8.5t-18 8t-8 19z" />
<glyph unicode="&#xf2;" horiz-adv-x="1423" d="M82 594q0 170 84.5 314.5t229.5 228.5t315 84q171 0 316 -84t229.5 -228.5t84.5 -314.5q0 -171 -84.5 -316t-229.5 -229t-316 -84q-170 0 -315 84t-229.5 229t-84.5 316zM154 594q0 -114 44 -217.5t119 -178.5t178 -119t216 -44q114 0 217.5 44t178.5 119t119 178.5 t44 217.5q0 113 -44 216.5t-119 178.5t-178.5 119.5t-217.5 44.5q-113 0 -216 -44.5t-178 -119.5t-119 -178.5t-44 -216.5zM524 1530q0 17 12 29t29 12q10 0 25 -6l282 -113q21 -9 21 -25q0 -10 -7 -17t-18 -7q-4 0 -12 2l-301 86q-31 9 -31 39z" />
<glyph unicode="&#xf3;" horiz-adv-x="1423" d="M82 594q0 170 84.5 314.5t229.5 228.5t315 84q171 0 316 -84t229.5 -228.5t84.5 -314.5q0 -171 -84.5 -316t-229.5 -229t-316 -84q-170 0 -315 84t-229.5 229t-84.5 316zM154 594q0 -114 44 -217.5t119 -178.5t178 -119t216 -44q114 0 217.5 44t178.5 119t119 178.5 t44 217.5q0 113 -44 216.5t-119 178.5t-178.5 119.5t-217.5 44.5q-113 0 -216 -44.5t-178 -119.5t-119 -178.5t-44 -216.5zM524 1427q0 16 21 25l282 113q15 6 25 6q17 0 29 -12t12 -29q0 -30 -31 -39l-301 -86q-8 -2 -12 -2q-11 0 -18 7t-7 17z" />
<glyph unicode="&#xf4;" horiz-adv-x="1423" d="M82 594q0 170 84.5 314.5t229.5 228.5t315 84q171 0 316 -84t229.5 -228.5t84.5 -314.5q0 -171 -84.5 -316t-229.5 -229t-316 -84q-170 0 -315 84t-229.5 229t-84.5 316zM154 594q0 -114 44 -217.5t119 -178.5t178 -119t216 -44q114 0 217.5 44t178.5 119t119 178.5 t44 217.5q0 113 -44 216.5t-119 178.5t-178.5 119.5t-217.5 44.5q-113 0 -216 -44.5t-178 -119.5t-119 -178.5t-44 -216.5zM530 1417q0 6 11 21l143 176q9 12 27 12q17 0 26 -12l144 -176q10 -13 10 -21q0 -10 -8 -18t-19 -8q-13 0 -22 12l-131 156l-131 -156 q-9 -12 -23 -12q-11 0 -19 8t-8 18z" />
<glyph unicode="&#xf5;" horiz-adv-x="1423" d="M82 594q0 170 84.5 314.5t229.5 228.5t315 84q171 0 316 -84t229.5 -228.5t84.5 -314.5q0 -171 -84.5 -316t-229.5 -229t-316 -84q-170 0 -315 84t-229.5 229t-84.5 316zM154 594q0 -114 44 -217.5t119 -178.5t178 -119t216 -44q114 0 217.5 44t178.5 119t119 178.5 t44 217.5q0 113 -44 216.5t-119 178.5t-178.5 119.5t-217.5 44.5q-113 0 -216 -44.5t-178 -119.5t-119 -178.5t-44 -216.5zM481 1438q0 55 39.5 94t91.5 39q38 0 70 -20t51 -54q26 -51 74 -51q34 0 56 22t22 56q0 10 7.5 18t18.5 8t19 -8t8 -18q0 -56 -39 -94.5t-92 -38.5 q-37 0 -70.5 19.5t-50.5 53.5q-9 21 -29.5 35t-44.5 14q-31 0 -54 -22t-23 -53q0 -10 -8.5 -18.5t-18.5 -8.5t-18.5 8.5t-8.5 18.5z" />
<glyph unicode="&#xf6;" horiz-adv-x="1423" d="M82 594q0 170 84.5 314.5t229.5 228.5t315 84q171 0 316 -84t229.5 -228.5t84.5 -314.5q0 -171 -84.5 -316t-229.5 -229t-316 -84q-170 0 -315 84t-229.5 229t-84.5 316zM154 594q0 -114 44 -217.5t119 -178.5t178 -119t216 -44q114 0 217.5 44t178.5 119t119 178.5 t44 217.5q0 113 -44 216.5t-119 178.5t-178.5 119.5t-217.5 44.5q-113 0 -216 -44.5t-178 -119.5t-119 -178.5t-44 -216.5zM459 1522q0 20 14.5 34.5t34.5 14.5t34.5 -14.5t14.5 -34.5t-14.5 -34.5t-34.5 -14.5t-34.5 14.5t-14.5 34.5zM864 1522q0 20 14.5 34.5t34.5 14.5 t34 -14.5t14 -34.5t-14 -34.5t-34 -14.5t-34.5 14.5t-14.5 34.5z" />
<glyph unicode="&#xf7;" horiz-adv-x="1390" d="M86 594q0 14 11 24.5t24 10.5h1151q14 0 24.5 -10.5t10.5 -24.5t-10.5 -24.5t-24.5 -10.5h-1151q-13 0 -24 10.5t-11 24.5zM641 41q0 22 16 37.5t39 15.5t39.5 -15.5t16.5 -37.5q0 -25 -16 -41t-40 -16q-23 0 -39 16t-16 41zM641 1145q0 25 16 41t39 16q24 0 40 -16 t16 -41q0 -22 -16.5 -38.5t-39.5 -16.5t-39 16.5t-16 38.5z" />
<glyph unicode="&#xf8;" horiz-adv-x="1439" d="M90 594q0 170 84.5 314.5t229.5 228.5t315 84q236 0 420 -160l133 133q10 9 25 9t24 -9q11 -10 11 -25t-11 -24l-133 -133q162 -180 162 -418q0 -128 -50 -244.5t-134.5 -201t-201.5 -134t-245 -49.5q-240 0 -418 160l-133 -133q-10 -9 -25 -9t-24 9q-11 10 -11 25t11 24 l131 131q-160 181 -160 422zM162 594q0 -216 139 -371l789 789q-75 67 -171 104t-200 37q-113 0 -216 -44.5t-178 -119.5t-119 -178.5t-44 -216.5zM350 174q155 -139 369 -139q114 0 217.5 44t178.5 119t119 178.5t44 217.5q0 211 -139 369z" />
<glyph unicode="&#xf9;" horiz-adv-x="1257" d="M123 453v714q0 13 10.5 24t24.5 11t24.5 -11t10.5 -24v-714q0 -172 122 -295t295 -123q189 0 322 132.5t133 321.5v678q0 13 10.5 24t24.5 11t24.5 -11t10.5 -24v-1149q0 -13 -10.5 -23.5t-24.5 -10.5t-24.5 10.5t-10.5 23.5v211q-70 -121 -190.5 -192.5t-264.5 -71.5 q-202 0 -344.5 143.5t-142.5 344.5zM442 1530q0 17 12 29t29 12q10 0 25 -6l283 -113q20 -9 20 -25q0 -10 -7 -17t-18 -7q-4 0 -12 2l-301 86q-31 9 -31 39z" />
<glyph unicode="&#xfa;" horiz-adv-x="1257" d="M123 453v714q0 13 10.5 24t24.5 11t24.5 -11t10.5 -24v-714q0 -172 122 -295t295 -123q189 0 322 132.5t133 321.5v678q0 13 10.5 24t24.5 11t24.5 -11t10.5 -24v-1149q0 -13 -10.5 -23.5t-24.5 -10.5t-24.5 10.5t-10.5 23.5v211q-70 -121 -190.5 -192.5t-264.5 -71.5 q-202 0 -344.5 143.5t-142.5 344.5zM442 1427q0 16 21 25l282 113q15 6 25 6q17 0 29 -12t12 -29q0 -30 -31 -39l-301 -86q-8 -2 -12 -2q-11 0 -18 7t-7 17z" />
<glyph unicode="&#xfb;" horiz-adv-x="1257" d="M123 453v714q0 13 10.5 24t24.5 11t24.5 -11t10.5 -24v-714q0 -172 122 -295t295 -123q189 0 322 132.5t133 321.5v678q0 13 10.5 24t24.5 11t24.5 -11t10.5 -24v-1149q0 -13 -10.5 -23.5t-24.5 -10.5t-24.5 10.5t-10.5 23.5v211q-70 -121 -190.5 -192.5t-264.5 -71.5 q-202 0 -344.5 143.5t-142.5 344.5zM446 1417q0 6 11 21l143 176q9 12 27 12q17 0 26 -12l144 -176q10 -13 10 -21q0 -10 -8 -18t-19 -8q-13 0 -22 12l-131 156l-131 -156q-9 -12 -23 -12q-11 0 -19 8t-8 18z" />
<glyph unicode="&#xfc;" horiz-adv-x="1257" d="M123 453v714q0 13 10.5 24t24.5 11t24.5 -11t10.5 -24v-714q0 -172 122 -295t295 -123q189 0 322 132.5t133 321.5v678q0 13 10.5 24t24.5 11t24.5 -11t10.5 -24v-1149q0 -13 -10.5 -23.5t-24.5 -10.5t-24.5 10.5t-10.5 23.5v211q-70 -121 -190.5 -192.5t-264.5 -71.5 q-202 0 -344.5 143.5t-142.5 344.5zM375 1522q0 20 14.5 34.5t34.5 14.5t34.5 -14.5t14.5 -34.5t-14.5 -34.5t-34.5 -14.5t-34.5 14.5t-14.5 34.5zM780 1522q0 20 14.5 34.5t34.5 14.5t34 -14.5t14 -34.5t-14 -34.5t-34 -14.5t-34.5 14.5t-14.5 34.5z" />
<glyph unicode="&#xfd;" horiz-adv-x="1159" d="M25 1167q0 14 10.5 24.5t23.5 10.5q11 0 20.5 -6.5t12.5 -15.5l488 -1092l487 1092q3 9 13 15.5t20 6.5q14 0 24.5 -11t10.5 -24q0 -8 -5 -18l-665 -1493q-3 -9 -13 -16t-20 -7q-14 0 -24.5 10.5t-10.5 24.5q0 11 4 19l140 315l-512 1147q-4 8 -4 18zM393 1427 q0 16 21 25l282 113q15 6 25 6q17 0 29 -12t12 -29q0 -30 -31 -39l-301 -86q-8 -2 -12 -2q-11 0 -18 7t-7 17z" />
<glyph unicode="&#xfe;" horiz-adv-x="1462" d="M123 -332v1850q0 13 10.5 23.5t24.5 10.5t24.5 -10.5t10.5 -23.5v-637q77 154 228 247t331 93q127 0 243.5 -49.5t200.5 -133.5t134 -200.5t50 -243.5q0 -128 -50 -244.5t-134 -201t-200 -134t-244 -49.5q-180 0 -331 93t-228 247v-637q0 -14 -10.5 -24.5t-24.5 -10.5 t-24.5 10.5t-10.5 24.5zM195 594q0 -152 74 -280.5t202.5 -203.5t280.5 -75t280.5 75t202.5 203.5t74 280.5q0 113 -44 216.5t-118.5 178.5t-177.5 119.5t-217 44.5t-217 -44.5t-177.5 -119.5t-118.5 -178.5t-44 -216.5z" />
<glyph unicode="&#xff;" horiz-adv-x="1159" d="M25 1167q0 14 10.5 24.5t23.5 10.5q11 0 20.5 -6.5t12.5 -15.5l488 -1092l487 1092q3 9 13 15.5t20 6.5q14 0 24.5 -11t10.5 -24q0 -8 -5 -18l-665 -1493q-3 -9 -13 -16t-20 -7q-14 0 -24.5 10.5t-10.5 24.5q0 11 4 19l140 315l-512 1147q-4 8 -4 18zM328 1522 q0 20 14.5 34.5t34.5 14.5t34.5 -14.5t14.5 -34.5t-14.5 -34.5t-34.5 -14.5t-34.5 14.5t-14.5 34.5zM733 1522q0 20 14.5 34.5t34.5 14.5t33.5 -14.5t13.5 -34.5t-13.5 -34.5t-33.5 -14.5t-34.5 14.5t-14.5 34.5z" />
<glyph unicode="&#x152;" horiz-adv-x="2795" d="M72 768q0 163 63.5 311.5t170.5 256t256 171.5t312 64q241 0 439 -131t293 -344v391q0 20 14.5 34.5t34.5 14.5h1034q13 0 24 -11t11 -24t-11 -24t-24 -11h-1014v-663h873q14 0 24.5 -10.5t10.5 -24.5t-10.5 -24.5t-24.5 -10.5h-873v-663h1014q13 0 24 -11t11 -24 t-11 -24t-24 -11h-1034q-20 0 -34.5 14.5t-14.5 34.5v391q-95 -214 -293 -344.5t-439 -130.5q-163 0 -312 64t-256 171.5t-170.5 256t-63.5 311.5zM143 768q0 -200 98 -368.5t266.5 -266.5t366.5 -98t366.5 98t267 266.5t98.5 368.5q0 148 -58 283.5t-156.5 233.5t-234 156 t-283.5 58t-283.5 -58t-233.5 -156t-156 -233.5t-58 -283.5z" />
<glyph unicode="&#x153;" horiz-adv-x="2605" d="M82 594q0 170 84.5 314.5t229.5 228.5t315 84q203 0 366 -117t228 -303q66 186 227 303t364 117q124 0 238.5 -48t198 -129t135 -193.5t55.5 -236.5q0 -24 -14 -39.5t-35 -15.5h-1135q10 -145 86 -265t200.5 -189.5t270.5 -69.5q145 0 269.5 70.5t199.5 189.5 q10 24 35 24q14 0 24.5 -10.5t10.5 -23.5q0 -12 -10 -25q-86 -136 -226 -215.5t-303 -79.5q-203 0 -365 117.5t-226 304.5q-65 -187 -228 -304.5t-366 -117.5q-170 0 -315 84t-229.5 229t-84.5 316zM154 594q0 -114 44 -217.5t119 -178.5t178 -119t216 -44q114 0 217.5 44 t178.5 119t119 178.5t44 217.5q0 113 -44 216.5t-119 178.5t-178.5 119.5t-217.5 44.5q-113 0 -216 -44.5t-178 -119.5t-119 -178.5t-44 -216.5zM1339 629h1112q-14 220 -174 371t-381 151q-146 0 -270.5 -69t-200.5 -188.5t-86 -264.5z" />
<glyph unicode="&#x178;" horiz-adv-x="1273" d="M31 1518q0 13 10.5 23.5t24.5 10.5q19 0 30 -18l541 -731l541 731q11 18 30 18q14 0 24.5 -10.5t10.5 -23.5q0 -12 -6 -21l-565 -762v-717q0 -13 -10.5 -23.5t-24.5 -10.5t-24.5 10.5t-10.5 23.5v717l-565 762q-6 9 -6 21zM385 1712q0 21 14 35t35 14t35 -14t14 -35 q0 -20 -14.5 -34.5t-34.5 -14.5t-34.5 14.5t-14.5 34.5zM791 1712q0 21 14 35t35 14q22 0 34.5 -13.5t12.5 -35.5q0 -21 -13 -35t-34 -14q-20 0 -34.5 14.5t-14.5 34.5z" />
<glyph unicode="&#x2c6;" horiz-adv-x="770" d="M205 1417q0 8 10 21l143 176q9 12 27 12t27 -12l143 -176q10 -13 10 -21q0 -11 -7.5 -18.5t-18.5 -7.5q-14 0 -23 12l-131 156l-131 -156q-9 -12 -23 -12q-11 0 -18.5 7.5t-7.5 18.5z" />
<glyph unicode="&#x2dc;" horiz-adv-x="866" d="M205 1438q0 55 39.5 94t91.5 39q38 0 70 -20t51 -54q26 -51 73 -51q34 0 56 22t22 56q0 10 8 18t19 8t19 -8t8 -18q0 -56 -39.5 -94.5t-92.5 -38.5q-37 0 -70 19.5t-50 53.5q-9 21 -29.5 35t-44.5 14q-31 0 -54.5 -22.5t-23.5 -52.5q0 -10 -8 -18.5t-19 -8.5q-10 0 -18 8 t-8 19z" />
<glyph unicode="&#x2000;" horiz-adv-x="946" />
<glyph unicode="&#x2001;" horiz-adv-x="1892" />
<glyph unicode="&#x2002;" horiz-adv-x="946" />
<glyph unicode="&#x2003;" horiz-adv-x="1892" />
<glyph unicode="&#x2004;" horiz-adv-x="630" />
<glyph unicode="&#x2005;" horiz-adv-x="473" />
<glyph unicode="&#x2006;" />
<glyph unicode="&#x2007;" />
<glyph unicode="&#x2008;" horiz-adv-x="236" />
<glyph unicode="&#x2009;" horiz-adv-x="378" />
<glyph unicode="&#x200a;" horiz-adv-x="105" />
<glyph unicode="&#x2010;" horiz-adv-x="950" d="M127 594q0 14 10.5 24.5t24.5 10.5h626q14 0 24.5 -10.5t10.5 -24.5t-10.5 -24.5t-24.5 -10.5h-626q-14 0 -24.5 10.5t-10.5 24.5z" />
<glyph unicode="&#x2011;" horiz-adv-x="950" d="M127 594q0 14 10.5 24.5t24.5 10.5h626q14 0 24.5 -10.5t10.5 -24.5t-10.5 -24.5t-24.5 -10.5h-626q-14 0 -24.5 10.5t-10.5 24.5z" />
<glyph unicode="&#x2012;" horiz-adv-x="950" d="M127 594q0 14 10.5 24.5t24.5 10.5h626q14 0 24.5 -10.5t10.5 -24.5t-10.5 -24.5t-24.5 -10.5h-626q-14 0 -24.5 10.5t-10.5 24.5z" />
<glyph unicode="&#x2013;" horiz-adv-x="1196" d="M76 594q0 14 11 24.5t24 10.5h974q13 0 24 -10.5t11 -24.5t-11 -24.5t-24 -10.5h-974q-13 0 -24 10.5t-11 24.5z" />
<glyph unicode="&#x2014;" horiz-adv-x="1720" d="M76 594q0 14 11 24.5t24 10.5h1499q14 0 24.5 -10.5t10.5 -24.5t-10.5 -24.5t-24.5 -10.5h-1499q-13 0 -24 10.5t-11 24.5z" />
<glyph unicode="&#x2018;" horiz-adv-x="329" d="M102 1288v168q0 38 28 66t67 28q11 0 18.5 -8t7.5 -18q0 -11 -8 -19t-18 -8q-17 0 -30 -13t-13 -30v-100h10q26 0 44.5 -19t18.5 -47q0 -25 -18.5 -43t-44.5 -18t-44 18t-18 43z" />
<glyph unicode="&#x2019;" horiz-adv-x="329" d="M102 1489q0 25 19 43t45 18t43.5 -18t17.5 -43v-168q0 -39 -27.5 -66.5t-66.5 -27.5q-11 0 -19 8t-8 18q0 11 8 19t19 8q17 0 30 13t13 30v100h-10q-26 0 -45 19t-19 47z" />
<glyph unicode="&#x201a;" horiz-adv-x="288" d="M102 49q0 25 19 43.5t45 18.5t43.5 -18.5t17.5 -43.5v-168q0 -39 -27.5 -66.5t-66.5 -27.5q-11 0 -19 8.5t-8 18.5t8 18t19 8q17 0 30 13t13 30v101h-10q-26 0 -45 19t-19 46z" />
<glyph unicode="&#x201c;" horiz-adv-x="458" d="M102 1288v168q0 38 28 66t67 28q11 0 18.5 -8t7.5 -18q0 -11 -8 -19t-18 -8q-17 0 -30 -13t-13 -30v-100h10q26 0 44.5 -19t18.5 -47q0 -25 -18.5 -43t-44.5 -18t-44 18t-18 43zM272 1288v168q0 38 28 66t67 28q11 0 18.5 -8t7.5 -18q0 -11 -8 -19t-18 -8q-17 0 -30 -13 t-13 -30v-100h10q26 0 44.5 -19t18.5 -47q0 -25 -18.5 -43t-44.5 -18t-44 18t-18 43z" />
<glyph unicode="&#x201d;" horiz-adv-x="458" d="M61 1489q0 25 19 43t45 18t43.5 -18t17.5 -43v-168q0 -39 -27.5 -66.5t-66.5 -27.5q-10 0 -18 7.5t-8 18.5t8 19t18 8q17 0 30 13t13 30v100h-10q-26 0 -45 19t-19 47zM231 1489q0 25 19 43t45 18t43.5 -18t17.5 -43v-168q0 -39 -27.5 -66.5t-66.5 -27.5q-10 0 -18 7.5 t-8 18.5t8 19t18 8q17 0 30 13t13 30v100h-10q-26 0 -45 19t-19 47z" />
<glyph unicode="&#x201e;" horiz-adv-x="458" d="M61 49q0 25 19 43.5t45 18.5t43.5 -18.5t17.5 -43.5v-168q0 -39 -27.5 -66.5t-66.5 -27.5q-10 0 -18 8t-8 19q0 10 8 18t18 8q17 0 30 13t13 30v101h-10q-27 0 -45.5 19t-18.5 46zM231 49q0 25 19 43.5t45 18.5t43.5 -18.5t17.5 -43.5v-168q0 -39 -27.5 -66.5 t-66.5 -27.5q-10 0 -18 8t-8 19q0 10 8 18t18 8q17 0 30 13t13 30v101h-10q-27 0 -45.5 19t-18.5 46z" />
<glyph unicode="&#x2022;" horiz-adv-x="690" d="M205 594q0 57 41.5 98t99.5 41q57 0 98 -41t41 -98q0 -58 -41 -99.5t-98 -41.5q-58 0 -99.5 41.5t-41.5 99.5z" />
<glyph unicode="&#x2026;" horiz-adv-x="1263" d="M72 49q0 25 18.5 43.5t44.5 18.5t44 -18.5t18 -43.5q0 -28 -18 -46.5t-44 -18.5t-44.5 18.5t-18.5 46.5zM569 49q0 25 19 43.5t45 18.5t43.5 -18.5t17.5 -43.5q0 -28 -17.5 -46.5t-43.5 -18.5q-27 0 -45.5 19t-18.5 46zM1067 49q0 25 18.5 43.5t44.5 18.5t44 -18.5 t18 -43.5q0 -28 -18 -46.5t-44 -18.5t-44.5 18.5t-18.5 46.5z" />
<glyph unicode="&#x202f;" horiz-adv-x="378" />
<glyph unicode="&#x2039;" horiz-adv-x="505" d="M66 593q0 21 14 36l301 301q9 9 23.5 9t25.5 -9q9 -10 9 -25t-9 -24l-287 -287l285 -287q10 -9 10 -24t-10 -25q-9 -9 -23.5 -9t-25.5 9l-299 301q-14 13 -14 34z" />
<glyph unicode="&#x203a;" horiz-adv-x="505" d="M67 905q0 15 9 25q10 9 25 9t24 -9l301 -301q14 -15 14 -36t-14 -34l-299 -301q-11 -9 -25.5 -9t-23.5 9q-10 10 -10 25t10 24l284 287l-286 287q-9 9 -9 24z" />
<glyph unicode="&#x205f;" horiz-adv-x="473" />
<glyph unicode="&#x20ac;" horiz-adv-x="1480" d="M57 629q0 13 10.5 24t24.5 11h162q-6 53 -6 104q0 52 6 104h-162q-14 0 -24.5 11t-10.5 24t10.5 24t24.5 11h170q33 179 123.5 322t223.5 225t284 82q147 0 275.5 -77.5t220.5 -211.5q10 -15 10 -25q0 -13 -10.5 -23.5t-24.5 -10.5q-20 0 -33 22q-81 120 -194.5 187 t-243.5 67q-201 0 -357 -157t-202 -400h907q13 0 24 -11t11 -24t-11 -24t-24 -11h-917q-5 -44 -5 -104t5 -104h743q13 0 24 -11t11 -24t-11 -24t-24 -11h-733q46 -243 202 -400t357 -157q130 0 243.5 67t194.5 187q13 22 33 22q14 0 24.5 -10.5t10.5 -23.5q0 -10 -10 -25 q-92 -134 -220.5 -211.5t-275.5 -77.5q-151 0 -284 82t-223.5 225t-123.5 322h-170q-14 0 -24.5 11t-10.5 24z" />
<glyph unicode="&#x2122;" horiz-adv-x="739" d="M82 1522v14h240v-14h-113v-293h-14v293h-113zM350 1229v307h17l137 -289l137 289h16v-307h-14v274l-133 -274h-12l-133 274v-274h-15z" />
<glyph unicode="&#xe000;" horiz-adv-x="1198" d="M0 0v1198h1198v-1198h-1198z" />
<glyph unicode="&#xfb01;" horiz-adv-x="997" d="M25 1151q0 14 10.5 24.5t23.5 10.5h121v125q0 107 76.5 183.5t183.5 76.5q106 0 183 -74q12 -9 12 -27q0 -13 -10.5 -23.5t-24.5 -10.5q-17 0 -27 10q-57 57 -133 57q-78 0 -134 -56.5t-56 -135.5v-125h575q20 0 34.5 -14.5t14.5 -34.5v-1119q0 -14 -10 -24t-24 -10 t-24.5 10.5t-10.5 23.5v1098h-555v-1098q0 -13 -10.5 -23.5t-24.5 -10.5t-24.5 10.5t-10.5 23.5v1098h-121q-13 0 -23.5 10.5t-10.5 24.5zM791 1522q0 20 14.5 34.5t34.5 14.5t34.5 -14.5t14.5 -34.5t-14.5 -34.5t-34.5 -14.5t-34.5 14.5t-14.5 34.5z" />
<glyph unicode="&#xfb02;" horiz-adv-x="997" d="M25 1151q0 14 10.5 24.5t23.5 10.5h121v90q0 107 76.5 183.5t183.5 76.5h385q20 0 34.5 -14.5t14.5 -34.5v-1469q0 -14 -10 -24t-24 -10t-24.5 10.5t-10.5 23.5v1450h-365q-78 0 -134 -56.5t-56 -135.5v-90h280q14 0 24.5 -11t10.5 -24t-10.5 -24t-24.5 -11h-280v-1098 q0 -13 -10.5 -23.5t-24.5 -10.5t-24.5 10.5t-10.5 23.5v1098h-121q-13 0 -23.5 10.5t-10.5 24.5z" />
<glyph unicode="&#xfb03;" horiz-adv-x="1624" d="M25 1151q0 14 10.5 24.5t23.5 10.5h121v125q0 107 76.5 183.5t183.5 76.5q106 0 183 -74q12 -9 12 -27q0 -13 -10.5 -23.5t-24.5 -10.5q-17 0 -27 10q-57 57 -133 57q-78 0 -134 -56.5t-56 -135.5v-125h557v125q0 107 76.5 183.5t183.5 76.5q105 0 182 -74q13 -10 13 -27 q0 -13 -10.5 -23.5t-24.5 -10.5q-17 0 -27 10q-57 57 -133 57q-78 0 -134 -56.5t-56 -135.5v-125h575q20 0 34.5 -14.5t14.5 -34.5v-1119q0 -13 -10.5 -23.5t-24.5 -10.5t-24 10t-10 24v1098h-555v-1098q0 -13 -10.5 -23.5t-24.5 -10.5t-24.5 10.5t-10.5 23.5v1098h-557 v-1098q0 -13 -10.5 -23.5t-24.5 -10.5t-24.5 10.5t-10.5 23.5v1098h-121q-13 0 -23.5 10.5t-10.5 24.5zM1417 1522q0 20 14.5 34.5t34.5 14.5t35 -14.5t15 -34.5t-15 -34.5t-35 -14.5t-34.5 14.5t-14.5 34.5z" />
<glyph unicode="&#xfb04;" horiz-adv-x="1626" d="M25 1151q0 14 10.5 24.5t23.5 10.5h121v125q0 107 76.5 183.5t183.5 76.5q106 0 183 -74q12 -9 12 -27q0 -13 -10.5 -23.5t-24.5 -10.5q-17 0 -27 10q-57 57 -133 57q-78 0 -134 -56.5t-56 -135.5v-125h559v90q0 107 76.5 183.5t183.5 76.5h385q20 0 34.5 -14.5 t14.5 -34.5v-1469q0 -13 -10.5 -23.5t-24.5 -10.5t-24 10t-10 24v1450h-365q-78 0 -134 -56.5t-56 -135.5v-90h280q13 0 24 -11t11 -24t-11 -24t-24 -11h-280v-1098q0 -13 -10.5 -23.5t-24.5 -10.5t-24.5 10.5t-10.5 23.5v1098h-559v-1098q0 -13 -10.5 -23.5t-24.5 -10.5 t-24.5 10.5t-10.5 23.5v1098h-121q-13 0 -23.5 10.5t-10.5 24.5z" />
</font>
</defs>
</svg>
